<svg xmlns="http://www.w3.org/2000/svg" xmlns:xlink="http://www.w3.org/1999/xlink" width="500" zoomAndPan="magnify" viewBox="0 0 375 374.999991" height="500" preserveAspectRatio="xMidYMid meet" version="1.0"><path fill="#a2c11c" d="M 349.054688 45.894531 C 328.597656 15.628906 291.675781 29.832031 265.800781 42.507812 C 247.148438 51.574219 229.097656 62.664062 212.304688 74.902344 C 199.558594 84.242188 224.722656 117.238281 237.851562 107.675781 C 253.714844 96.097656 270.671875 85.71875 288.121094 76.867188 C 289.707031 76.046875 291.292969 75.285156 292.878906 74.519531 C 293.097656 74.410156 293.699219 74.136719 294.136719 73.917969 C 294.628906 73.699219 295.121094 73.480469 295.613281 73.261719 C 299.003906 71.730469 302.449219 70.3125 305.953125 69 C 312.023438 66.707031 318.3125 64.847656 324.714844 63.8125 C 325.917969 63.59375 327.175781 63.484375 328.378906 63.375 C 328.324219 64.195312 328.269531 65.011719 328.160156 65.832031 C 327.832031 69.546875 327.175781 73.207031 326.410156 76.867188 C 325.371094 81.894531 324.769531 83.695312 322.964844 89.488281 C 314.867188 115.160156 302.835938 139.636719 290.363281 163.453125 C 289.652344 155.3125 288.941406 147.171875 288.230469 138.980469 C 286.863281 123.027344 262.082031 122.972656 263.503906 139.089844 C 265.363281 160.175781 267.167969 181.316406 268.976562 202.402344 C 269.523438 208.738281 274.28125 215.511719 281.390625 214.910156 C 302.339844 213.054688 323.183594 211.199219 344.132812 209.339844 C 359.941406 207.972656 359.996094 182.953125 344.023438 184.320312 C 336.859375 184.921875 329.636719 185.632812 322.417969 186.230469 C 336.253906 159.519531 349 131.988281 356.550781 102.816406 C 361.691406 82.601562 360.925781 63.484375 349.054688 45.894531 Z M 349.054688 45.894531 " fill-opacity="1" fill-rule="nonzero"/><path fill="#a2c11c" d="M 259.839844 235.453125 C 241.296875 260.144531 222.699219 284.78125 204.15625 309.472656 C 186.433594 288.605469 168.765625 267.792969 151.042969 246.925781 C 157.660156 246.597656 164.277344 246.214844 170.898438 245.886719 C 185.886719 245.066406 185.941406 221.46875 170.84375 222.230469 C 152.410156 223.214844 133.976562 224.199219 115.542969 225.183594 C 109.414062 225.511719 103.5625 230.371094 103.890625 237.035156 C 104.875 256.429688 105.859375 275.820312 106.898438 295.269531 C 107.71875 310.402344 131.074219 310.457031 130.253906 295.214844 C 129.925781 288.167969 129.542969 281.175781 129.160156 274.128906 C 150.113281 298.820312 171.117188 323.511719 192.066406 348.203125 C 198.957031 356.34375 215.148438 359.128906 222.261719 349.679688 C 245.398438 318.921875 268.425781 288.222656 291.566406 257.523438 C 305.242188 239.386719 272.421875 218.679688 259.839844 235.453125 Z M 259.839844 235.453125 " fill-opacity="1" fill-rule="nonzero"/><path fill="#a2c11c" d="M 50.339844 80.253906 C 50.449219 79.542969 50.667969 78.125 50.832031 77.46875 C 51.105469 76.265625 51.542969 75.175781 51.980469 74.027344 C 52.035156 73.808594 52.089844 73.699219 52.199219 73.535156 C 52.253906 73.425781 52.308594 73.371094 52.363281 73.316406 C 52.964844 72.386719 53.730469 71.570312 54.496094 70.804688 C 54.550781 70.75 54.660156 70.695312 54.714844 70.640625 C 55.589844 70.148438 56.464844 69.765625 57.394531 69.382812 C 57.832031 69.273438 58.214844 69.164062 58.597656 69.164062 C 59.253906 69.054688 59.964844 68.945312 60.675781 68.890625 C 61.386719 68.945312 63.738281 68.945312 64.5625 69 C 66.476562 69.164062 68.335938 69.546875 70.195312 69.929688 C 70.46875 69.984375 70.851562 70.09375 71.289062 70.203125 C 71.890625 70.367188 72.4375 70.53125 73.039062 70.695312 C 78.070312 72.167969 82.941406 74.027344 87.753906 76.046875 C 89.996094 76.976562 92.238281 78.015625 94.480469 79.050781 C 94.753906 79.160156 97.160156 80.308594 97.542969 80.527344 C 99.132812 81.347656 100.71875 82.113281 102.25 82.929688 C 115.433594 89.8125 128.230469 97.625 140.757812 105.710938 C 137.421875 105.984375 134.03125 106.3125 130.691406 106.585938 C 122.105469 107.351562 114.882812 113.359375 114.9375 122.644531 C 114.9375 130.839844 122.214844 139.363281 130.800781 138.597656 C 146.609375 137.175781 162.417969 135.8125 178.226562 134.390625 C 186.269531 133.679688 194.800781 127.5625 194.035156 118.382812 C 192.667969 102.378906 191.246094 86.425781 189.878906 70.421875 C 189.113281 61.734375 183.203125 54.46875 174.015625 54.46875 C 165.917969 54.46875 157.496094 61.789062 158.261719 70.53125 C 158.699219 75.5 159.136719 80.417969 159.574219 85.390625 C 158.316406 84.351562 157.058594 83.367188 155.800781 82.601562 C 129.980469 65.613281 102.359375 48.132812 72.65625 39.121094 C 56.464844 34.09375 36.773438 30.816406 23.261719 43.488281 C 13.691406 52.449219 13.527344 68.726562 15.113281 80.800781 C 17.355469 97.734375 22.496094 113.960938 28.730469 129.855469 C 38.796875 155.421875 50.777344 180.496094 64.617188 204.203125 C 69.429688 212.507812 78.945312 220.484375 89.175781 219.171875 C 98.75 217.917969 99.84375 207.265625 95.683594 200.109375 C 84.855469 181.535156 75.226562 162.085938 66.640625 142.3125 C 65.820312 140.453125 65.054688 138.597656 64.230469 136.683594 C 64.066406 136.355469 63.957031 136.085938 63.847656 135.757812 C 63.683594 135.265625 63.464844 134.71875 63.300781 134.390625 C 61.660156 130.292969 60.128906 126.195312 58.707031 122.042969 C 56.082031 114.453125 53.730469 106.804688 52.035156 98.992188 C 51.652344 97.296875 51.269531 95.496094 50.996094 93.800781 C 50.941406 93.636719 50.941406 93.527344 50.941406 93.363281 C 50.941406 93.09375 50.832031 92.710938 50.777344 92.164062 C 50.394531 88.886719 50.175781 85.5 50.285156 82.167969 C 50.285156 81.621094 50.339844 80.964844 50.339844 80.253906 Z M 50.339844 80.253906 " fill-opacity="1" fill-rule="nonzero"/></svg>