<svg xmlns="http://www.w3.org/2000/svg" xmlns:xlink="http://www.w3.org/1999/xlink" width="400" zoomAndPan="magnify" viewBox="0 0 300 299.999988" height="400" preserveAspectRatio="xMidYMid meet" version="1.0"><defs><clipPath id="74bbfd7c85"><path d="M 4.460938 24.472656 L 295 24.472656 L 295 275.722656 L 4.460938 275.722656 Z M 4.460938 24.472656 " clip-rule="nonzero"/></clipPath></defs><g clip-path="url(#74bbfd7c85)"><path fill="#a2c11c" d="M 92.132812 24.875 C 81.640625 24.875 72.066406 31.191406 67.929688 40.839844 L 35.269531 117.144531 L 17.652344 117.144531 C 13.53125 117.144531 9.664062 119.0625 7.160156 122.34375 C 4.683594 125.613281 3.84375 129.859375 4.921875 133.828125 L 38.640625 255.957031 C 41.785156 267.34375 52.222656 275.316406 64.023438 275.316406 L 234.582031 275.316406 C 246.378906 275.316406 256.804688 267.359375 259.9375 255.984375 L 293.65625 133.851562 C 294.746094 129.882812 293.917969 125.613281 291.441406 122.34375 C 288.941406 119.0625 285.058594 117.144531 280.949219 117.144531 L 263.332031 117.144531 L 230.648438 40.863281 L 230.671875 40.863281 C 226.542969 31.171875 216.9375 24.875 206.445312 24.875 Z M 92.132812 51.238281 L 206.445312 51.238281 L 234.660156 117.144531 L 63.945312 117.144531 Z M 96.632812 156.6875 C 103.902344 156.6875 109.800781 162.59375 109.800781 169.867188 L 109.800781 222.59375 C 109.800781 229.867188 103.902344 235.773438 96.632812 235.773438 C 89.363281 235.773438 83.464844 229.867188 83.464844 222.59375 L 83.464844 169.867188 C 83.464844 162.59375 89.363281 156.6875 96.632812 156.6875 Z M 149.300781 156.6875 C 156.570312 156.6875 162.46875 162.59375 162.46875 169.867188 L 162.46875 222.59375 C 162.46875 229.867188 156.570312 235.773438 149.300781 235.773438 C 142.035156 235.773438 136.132812 229.867188 136.132812 222.59375 L 136.132812 169.867188 C 136.132812 162.59375 142.035156 156.6875 149.300781 156.6875 Z M 201.972656 156.6875 C 209.238281 156.6875 215.140625 162.59375 215.140625 169.867188 L 215.140625 222.59375 C 215.140625 229.867188 209.238281 235.773438 201.972656 235.773438 C 194.703125 235.773438 188.804688 229.867188 188.804688 222.59375 L 188.804688 169.867188 C 188.804688 162.59375 194.703125 156.6875 201.972656 156.6875 Z M 201.972656 156.6875 " fill-opacity="1" fill-rule="nonzero"/></g></svg>