<svg xmlns="http://www.w3.org/2000/svg" xmlns:xlink="http://www.w3.org/1999/xlink" width="500" zoomAndPan="magnify" viewBox="0 0 375 374.999991" height="500" preserveAspectRatio="xMidYMid meet" version="1.0"><defs><clipPath id="417b786c8b"><path d="M 22.765625 7.015625 L 352.015625 7.015625 L 352.015625 367.765625 L 22.765625 367.765625 Z M 22.765625 7.015625 " clip-rule="nonzero"/></clipPath></defs><g clip-path="url(#417b786c8b)"><path fill="#283739" d="M 336.335938 69.792969 L 265.785156 69.792969 L 265.785156 58.738281 C 265.78125 57.046875 265.695312 55.359375 265.527344 53.679688 C 265.359375 51.996094 265.109375 50.324219 264.777344 48.664062 C 264.445312 47.007812 264.035156 45.367188 263.542969 43.75 C 263.050781 42.132812 262.480469 40.542969 261.832031 38.980469 C 261.183594 37.417969 260.457031 35.890625 259.660156 34.402344 C 258.863281 32.910156 257.992188 31.460938 257.054688 30.054688 C 256.113281 28.648438 255.105469 27.292969 254.03125 25.984375 C 252.960938 24.679688 251.824219 23.425781 250.628906 22.230469 C 249.433594 21.035156 248.183594 19.898438 246.875 18.828125 C 245.566406 17.753906 244.210938 16.746094 242.804688 15.804688 C 241.398438 14.867188 239.949219 13.996094 238.460938 13.199219 C 236.96875 12.402344 235.441406 11.675781 233.878906 11.027344 C 232.316406 10.378906 230.726562 9.808594 229.109375 9.316406 C 227.492188 8.824219 225.855469 8.414062 224.195312 8.082031 C 222.539062 7.75 220.867188 7.5 219.183594 7.332031 C 217.5 7.164062 215.8125 7.078125 214.121094 7.074219 L 160.660156 7.074219 C 158.96875 7.078125 157.28125 7.164062 155.597656 7.332031 C 153.914062 7.5 152.242188 7.75 150.585938 8.082031 C 148.925781 8.414062 147.289062 8.824219 145.671875 9.316406 C 144.054688 9.808594 142.464844 10.378906 140.902344 11.027344 C 139.339844 11.675781 137.8125 12.402344 136.320312 13.199219 C 134.832031 13.996094 133.382812 14.867188 131.976562 15.804688 C 130.570312 16.746094 129.214844 17.753906 127.90625 18.828125 C 126.597656 19.898438 125.347656 21.035156 124.152344 22.230469 C 122.957031 23.425781 121.820312 24.679688 120.75 25.984375 C 119.675781 27.292969 118.667969 28.648438 117.726562 30.054688 C 116.789062 31.460938 115.917969 32.910156 115.121094 34.402344 C 114.324219 35.890625 113.601562 37.417969 112.953125 38.980469 C 112.304688 40.542969 111.730469 42.132812 111.238281 43.75 C 110.746094 45.367188 110.335938 47.007812 110.003906 48.664062 C 109.671875 50.324219 109.421875 51.996094 109.253906 53.679688 C 109.085938 55.359375 109 57.046875 108.996094 58.738281 L 108.996094 69.792969 L 38.445312 69.792969 C 37.414062 69.792969 36.394531 69.894531 35.386719 70.09375 C 34.375 70.296875 33.394531 70.59375 32.445312 70.988281 C 31.492188 71.382812 30.589844 71.863281 29.734375 72.4375 C 28.878906 73.007812 28.085938 73.65625 27.359375 74.386719 C 26.628906 75.113281 25.980469 75.90625 25.40625 76.761719 C 24.835938 77.617188 24.351562 78.519531 23.960938 79.472656 C 23.566406 80.421875 23.269531 81.402344 23.066406 82.414062 C 22.867188 83.421875 22.765625 84.441406 22.765625 85.472656 C 22.765625 86.503906 22.867188 87.523438 23.066406 88.53125 C 23.269531 89.542969 23.566406 90.523438 23.960938 91.472656 C 24.351562 92.425781 24.835938 93.328125 25.40625 94.183594 C 25.980469 95.039062 26.628906 95.832031 27.359375 96.558594 C 28.085938 97.289062 28.878906 97.9375 29.734375 98.511719 C 30.589844 99.082031 31.492188 99.566406 32.445312 99.957031 C 33.394531 100.351562 34.375 100.648438 35.386719 100.851562 C 36.394531 101.050781 37.414062 101.152344 38.445312 101.152344 L 61.960938 101.152344 L 61.960938 315.804688 C 61.964844 317.503906 62.050781 319.199219 62.21875 320.894531 C 62.390625 322.585938 62.640625 324.265625 62.972656 325.933594 C 63.308594 327.601562 63.722656 329.246094 64.21875 330.875 C 64.714844 332.5 65.289062 334.101562 65.941406 335.671875 C 66.59375 337.242188 67.320312 338.777344 68.125 340.273438 C 68.929688 341.773438 69.800781 343.230469 70.75 344.644531 C 71.695312 346.054688 72.707031 347.421875 73.789062 348.734375 C 74.867188 350.046875 76.007812 351.304688 77.210938 352.507812 C 78.417969 353.707031 79.675781 354.847656 80.992188 355.925781 C 82.304688 357.003906 83.671875 358.015625 85.085938 358.960938 C 86.5 359.902344 87.957031 360.777344 89.457031 361.578125 C 90.957031 362.378906 92.492188 363.105469 94.066406 363.753906 C 95.636719 364.402344 97.234375 364.976562 98.863281 365.46875 C 100.492188 365.960938 102.136719 366.375 103.804688 366.707031 C 105.472656 367.039062 107.15625 367.285156 108.847656 367.453125 C 110.539062 367.621094 112.234375 367.703125 113.9375 367.703125 L 260.921875 367.703125 C 262.621094 367.699219 264.316406 367.613281 266.007812 367.445312 C 267.699219 367.277344 269.375 367.027344 271.042969 366.691406 C 272.707031 366.359375 274.355469 365.945312 275.980469 365.449219 C 277.605469 364.957031 279.203125 364.382812 280.769531 363.730469 C 282.339844 363.078125 283.875 362.351562 285.371094 361.550781 C 286.871094 360.75 288.324219 359.875 289.738281 358.933594 C 291.148438 357.988281 292.511719 356.976562 293.824219 355.898438 C 295.136719 354.820312 296.394531 353.679688 297.597656 352.480469 C 298.796875 351.277344 299.9375 350.019531 301.015625 348.707031 C 302.09375 347.394531 303.105469 346.03125 304.050781 344.617188 C 304.992188 343.207031 305.867188 341.75 306.667969 340.253906 C 307.46875 338.753906 308.195312 337.222656 308.847656 335.652344 C 309.5 334.082031 310.074219 332.484375 310.566406 330.859375 C 311.0625 329.234375 311.476562 327.589844 311.808594 325.921875 C 312.140625 324.257812 312.394531 322.578125 312.5625 320.886719 C 312.730469 319.199219 312.816406 317.503906 312.820312 315.804688 L 312.820312 101.152344 L 336.335938 101.152344 C 337.367188 101.152344 338.386719 101.050781 339.394531 100.851562 C 340.40625 100.648438 341.386719 100.351562 342.335938 99.957031 C 343.289062 99.566406 344.191406 99.082031 345.046875 98.511719 C 345.902344 97.9375 346.695312 97.289062 347.421875 96.558594 C 348.152344 95.832031 348.800781 95.039062 349.375 94.183594 C 349.945312 93.328125 350.429688 92.425781 350.820312 91.472656 C 351.214844 90.523438 351.511719 89.542969 351.714844 88.53125 C 351.914062 87.523438 352.015625 86.503906 352.015625 85.472656 C 352.015625 84.441406 351.914062 83.421875 351.714844 82.414062 C 351.511719 81.402344 351.214844 80.421875 350.820312 79.472656 C 350.429688 78.519531 349.945312 77.617188 349.375 76.761719 C 348.800781 75.90625 348.152344 75.113281 347.421875 74.386719 C 346.695312 73.65625 345.902344 73.007812 345.046875 72.4375 C 344.191406 71.863281 343.289062 71.382812 342.335938 70.988281 C 341.386719 70.59375 340.40625 70.296875 339.394531 70.09375 C 338.386719 69.894531 337.367188 69.792969 336.335938 69.792969 Z M 140.355469 58.738281 C 140.355469 58.074219 140.386719 57.410156 140.453125 56.75 C 140.519531 56.085938 140.617188 55.429688 140.746094 54.777344 C 140.875 54.125 141.035156 53.480469 141.230469 52.84375 C 141.421875 52.207031 141.644531 51.582031 141.902344 50.96875 C 142.15625 50.355469 142.4375 49.753906 142.753906 49.167969 C 143.066406 48.582031 143.40625 48.011719 143.777344 47.457031 C 144.144531 46.90625 144.542969 46.371094 144.964844 45.859375 C 145.386719 45.34375 145.832031 44.851562 146.300781 44.382812 C 146.773438 43.910156 147.265625 43.464844 147.777344 43.042969 C 148.292969 42.621094 148.824219 42.226562 149.378906 41.855469 C 149.929688 41.488281 150.5 41.144531 151.085938 40.832031 C 151.675781 40.519531 152.273438 40.234375 152.890625 39.980469 C 153.503906 39.726562 154.128906 39.5 154.765625 39.308594 C 155.402344 39.117188 156.046875 38.953125 156.699219 38.824219 C 157.351562 38.695312 158.007812 38.597656 158.667969 38.53125 C 159.332031 38.46875 159.992188 38.433594 160.660156 38.433594 L 214.121094 38.433594 C 214.789062 38.433594 215.449219 38.46875 216.113281 38.53125 C 216.773438 38.597656 217.429688 38.695312 218.082031 38.824219 C 218.734375 38.953125 219.378906 39.117188 220.015625 39.308594 C 220.652344 39.5 221.277344 39.726562 221.894531 39.980469 C 222.507812 40.234375 223.105469 40.519531 223.695312 40.832031 C 224.28125 41.144531 224.851562 41.488281 225.402344 41.855469 C 225.957031 42.226562 226.488281 42.621094 227.003906 43.042969 C 227.515625 43.464844 228.007812 43.910156 228.480469 44.382812 C 228.949219 44.851562 229.394531 45.34375 229.816406 45.859375 C 230.238281 46.371094 230.636719 46.90625 231.003906 47.457031 C 231.375 48.011719 231.714844 48.582031 232.027344 49.167969 C 232.34375 49.753906 232.625 50.355469 232.882812 50.96875 C 233.136719 51.582031 233.359375 52.207031 233.550781 52.84375 C 233.746094 53.480469 233.90625 54.125 234.035156 54.777344 C 234.167969 55.429688 234.261719 56.085938 234.328125 56.75 C 234.394531 57.410156 234.425781 58.074219 234.425781 58.738281 L 234.425781 69.792969 L 140.355469 69.792969 Z M 281.460938 315.804688 C 281.460938 316.476562 281.425781 317.144531 281.355469 317.816406 C 281.289062 318.484375 281.1875 319.148438 281.054688 319.804688 C 280.921875 320.464844 280.757812 321.113281 280.558594 321.757812 C 280.363281 322.398438 280.136719 323.03125 279.878906 323.652344 C 279.621094 324.273438 279.332031 324.878906 279.015625 325.472656 C 278.695312 326.0625 278.351562 326.636719 277.976562 327.195312 C 277.601562 327.753906 277.203125 328.292969 276.777344 328.8125 C 276.351562 329.332031 275.898438 329.828125 275.421875 330.304688 C 274.949219 330.78125 274.453125 331.230469 273.933594 331.65625 C 273.414062 332.085938 272.875 332.484375 272.316406 332.859375 C 271.757812 333.230469 271.183594 333.578125 270.589844 333.894531 C 269.996094 334.214844 269.390625 334.5 268.769531 334.757812 C 268.152344 335.019531 267.519531 335.246094 266.875 335.441406 C 266.234375 335.640625 265.582031 335.804688 264.925781 335.9375 C 264.265625 336.070312 263.601562 336.171875 262.933594 336.238281 C 262.265625 336.304688 261.59375 336.339844 260.921875 336.34375 L 113.9375 336.34375 C 113.261719 336.34375 112.589844 336.3125 111.921875 336.246094 C 111.25 336.179688 110.585938 336.082031 109.925781 335.949219 C 109.261719 335.820312 108.609375 335.65625 107.964844 335.460938 C 107.320312 335.265625 106.6875 335.039062 106.066406 334.78125 C 105.441406 334.523438 104.832031 334.238281 104.238281 333.921875 C 103.644531 333.605469 103.066406 333.257812 102.507812 332.886719 C 101.945312 332.511719 101.40625 332.113281 100.882812 331.6875 C 100.363281 331.257812 99.863281 330.808594 99.386719 330.332031 C 98.910156 329.855469 98.457031 329.359375 98.027344 328.839844 C 97.597656 328.320312 97.195312 327.78125 96.820312 327.222656 C 96.445312 326.660156 96.097656 326.085938 95.777344 325.492188 C 95.460938 324.898438 95.171875 324.292969 94.910156 323.671875 C 94.652344 323.046875 94.421875 322.414062 94.226562 321.773438 C 94.027344 321.128906 93.863281 320.476562 93.730469 319.816406 C 93.59375 319.15625 93.496094 318.488281 93.425781 317.820312 C 93.355469 317.148438 93.320312 316.476562 93.320312 315.804688 L 93.320312 101.152344 L 281.460938 101.152344 Z M 281.460938 315.804688 " fill-opacity="1" fill-rule="nonzero"/></g><path fill="#283739" d="M 148.195312 136.351562 C 147.164062 136.351562 146.144531 136.453125 145.136719 136.652344 C 144.125 136.855469 143.144531 137.152344 142.195312 137.546875 C 141.242188 137.941406 140.339844 138.421875 139.484375 138.996094 C 138.628906 139.566406 137.835938 140.21875 137.109375 140.945312 C 136.378906 141.671875 135.730469 142.464844 135.15625 143.320312 C 134.585938 144.175781 134.101562 145.082031 133.710938 146.03125 C 133.316406 146.984375 133.019531 147.964844 132.816406 148.972656 C 132.617188 149.984375 132.515625 151.003906 132.515625 152.03125 L 132.515625 293.148438 C 132.515625 294.175781 132.617188 295.195312 132.816406 296.207031 C 133.019531 297.214844 133.316406 298.195312 133.710938 299.148438 C 134.101562 300.097656 134.585938 301.003906 135.15625 301.859375 C 135.730469 302.714844 136.378906 303.507812 137.109375 304.234375 C 137.835938 304.960938 138.628906 305.613281 139.484375 306.183594 C 140.339844 306.757812 141.242188 307.238281 142.195312 307.632812 C 143.144531 308.027344 144.125 308.324219 145.136719 308.523438 C 146.144531 308.726562 147.164062 308.828125 148.195312 308.828125 C 149.222656 308.828125 150.242188 308.726562 151.253906 308.523438 C 152.261719 308.324219 153.242188 308.027344 154.195312 307.632812 C 155.144531 307.238281 156.050781 306.757812 156.90625 306.183594 C 157.761719 305.613281 158.554688 304.960938 159.28125 304.234375 C 160.007812 303.507812 160.660156 302.714844 161.230469 301.859375 C 161.800781 301.003906 162.285156 300.097656 162.679688 299.148438 C 163.074219 298.195312 163.371094 297.214844 163.570312 296.207031 C 163.773438 295.195312 163.871094 294.175781 163.871094 293.148438 L 163.871094 152.03125 C 163.871094 151.003906 163.773438 149.984375 163.570312 148.972656 C 163.371094 147.964844 163.074219 146.984375 162.679688 146.03125 C 162.285156 145.082031 161.800781 144.175781 161.230469 143.320312 C 160.660156 142.464844 160.007812 141.671875 159.28125 140.945312 C 158.554688 140.21875 157.761719 139.566406 156.90625 138.996094 C 156.050781 138.421875 155.144531 137.941406 154.195312 137.546875 C 153.242188 137.152344 152.261719 136.855469 151.253906 136.652344 C 150.242188 136.453125 149.222656 136.351562 148.195312 136.351562 Z M 148.195312 136.351562 " fill-opacity="1" fill-rule="nonzero"/><path fill="#283739" d="M 226.585938 136.351562 C 225.558594 136.351562 224.539062 136.453125 223.527344 136.652344 C 222.519531 136.855469 221.539062 137.152344 220.585938 137.546875 C 219.636719 137.941406 218.734375 138.421875 217.875 138.996094 C 217.019531 139.566406 216.230469 140.21875 215.5 140.945312 C 214.773438 141.671875 214.121094 142.464844 213.550781 143.320312 C 212.980469 144.175781 212.496094 145.082031 212.101562 146.03125 C 211.707031 146.984375 211.410156 147.964844 211.210938 148.972656 C 211.007812 149.984375 210.910156 151.003906 210.910156 152.03125 L 210.910156 293.148438 C 210.910156 294.175781 211.007812 295.195312 211.210938 296.207031 C 211.410156 297.214844 211.707031 298.195312 212.101562 299.148438 C 212.496094 300.097656 212.980469 301.003906 213.550781 301.859375 C 214.121094 302.714844 214.773438 303.507812 215.5 304.234375 C 216.230469 304.960938 217.019531 305.613281 217.875 306.183594 C 218.734375 306.757812 219.636719 307.238281 220.585938 307.632812 C 221.539062 308.027344 222.519531 308.324219 223.527344 308.523438 C 224.539062 308.726562 225.558594 308.828125 226.585938 308.828125 C 227.617188 308.828125 228.636719 308.726562 229.644531 308.523438 C 230.65625 308.324219 231.636719 308.027344 232.585938 307.632812 C 233.539062 307.238281 234.441406 306.757812 235.296875 306.183594 C 236.152344 305.613281 236.945312 304.960938 237.671875 304.234375 C 238.402344 303.507812 239.050781 302.714844 239.625 301.859375 C 240.195312 301.003906 240.679688 300.097656 241.070312 299.148438 C 241.464844 298.195312 241.761719 297.214844 241.964844 296.207031 C 242.164062 295.195312 242.265625 294.175781 242.265625 293.148438 L 242.265625 152.03125 C 242.265625 151.003906 242.164062 149.984375 241.964844 148.972656 C 241.761719 147.964844 241.464844 146.984375 241.070312 146.03125 C 240.679688 145.082031 240.195312 144.175781 239.625 143.320312 C 239.050781 142.464844 238.402344 141.671875 237.671875 140.945312 C 236.945312 140.21875 236.152344 139.566406 235.296875 138.996094 C 234.441406 138.421875 233.539062 137.941406 232.585938 137.546875 C 231.636719 137.152344 230.65625 136.855469 229.644531 136.652344 C 228.636719 136.453125 227.617188 136.351562 226.585938 136.351562 Z M 226.585938 136.351562 " fill-opacity="1" fill-rule="nonzero"/></svg>