<svg xmlns="http://www.w3.org/2000/svg" xmlns:xlink="http://www.w3.org/1999/xlink" width="500" zoomAndPan="magnify" viewBox="0 0 375 374.999991" height="500" preserveAspectRatio="xMidYMid meet" version="1.0"><defs><clipPath id="20e1f60d55"><path d="M 4 18 L 371 18 L 371 357.96875 L 4 357.96875 Z M 4 18 " clip-rule="nonzero"/></clipPath></defs><g clip-path="url(#20e1f60d55)"><path fill="#283739" d="M 287.476562 83.402344 L 252.925781 83.402344 L 216.285156 39.46875 C 215.734375 38.808594 215.253906 38.101562 214.84375 37.34375 C 214.433594 36.589844 214.097656 35.800781 213.84375 34.980469 C 213.585938 34.15625 213.414062 33.320312 213.324219 32.464844 C 213.234375 31.609375 213.230469 30.753906 213.308594 29.898438 C 213.386719 29.039062 213.546875 28.199219 213.792969 27.375 C 214.039062 26.550781 214.359375 25.757812 214.761719 24.996094 C 215.160156 24.238281 215.632812 23.523438 216.175781 22.855469 C 216.714844 22.1875 217.320312 21.578125 217.980469 21.027344 C 218.640625 20.476562 219.351562 19.996094 220.109375 19.585938 C 220.863281 19.175781 221.652344 18.84375 222.476562 18.589844 C 223.296875 18.335938 224.136719 18.164062 224.992188 18.074219 C 225.851562 17.984375 226.707031 17.980469 227.5625 18.058594 C 228.421875 18.136719 229.261719 18.300781 230.085938 18.546875 C 230.910156 18.789062 231.703125 19.113281 232.464844 19.515625 C 233.226562 19.914062 233.941406 20.386719 234.609375 20.929688 C 235.28125 21.46875 235.886719 22.070312 236.4375 22.734375 Z M 156.609375 21.035156 C 155.949219 20.484375 155.242188 20.003906 154.484375 19.59375 C 153.730469 19.179688 152.941406 18.847656 152.117188 18.59375 C 151.296875 18.339844 150.457031 18.164062 149.601562 18.074219 C 148.746094 17.984375 147.890625 17.980469 147.03125 18.058594 C 146.175781 18.136719 145.335938 18.300781 144.507812 18.542969 C 143.683594 18.789062 142.890625 19.113281 142.128906 19.511719 C 141.367188 19.914062 140.652344 20.386719 139.984375 20.929688 C 139.316406 21.46875 138.707031 22.070312 138.160156 22.734375 L 87.515625 83.402344 L 122.0625 83.402344 L 158.703125 39.46875 C 159.246094 38.796875 159.714844 38.078125 160.109375 37.3125 C 160.507812 36.546875 160.828125 35.75 161.066406 34.921875 C 161.304688 34.09375 161.460938 33.25 161.535156 32.390625 C 161.609375 31.53125 161.59375 30.671875 161.496094 29.816406 C 161.402344 28.960938 161.21875 28.121094 160.957031 27.300781 C 160.695312 26.476562 160.351562 25.691406 159.933594 24.9375 C 159.511719 24.183594 159.023438 23.480469 158.464844 22.820312 C 157.90625 22.164062 157.289062 21.570312 156.609375 21.035156 Z M 344.53125 96.476562 L 30.457031 96.476562 C 29.601562 96.476562 28.746094 96.515625 27.894531 96.601562 C 27.039062 96.683594 26.191406 96.808594 25.351562 96.976562 C 24.511719 97.144531 23.679688 97.351562 22.859375 97.601562 C 22.039062 97.851562 21.234375 98.136719 20.441406 98.464844 C 19.652344 98.792969 18.875 99.160156 18.121094 99.5625 C 17.363281 99.964844 16.628906 100.40625 15.917969 100.882812 C 15.203125 101.359375 14.515625 101.867188 13.855469 102.410156 C 13.191406 102.953125 12.558594 103.527344 11.953125 104.132812 C 11.34375 104.738281 10.769531 105.375 10.226562 106.035156 C 9.683594 106.699219 9.171875 107.382812 8.695312 108.097656 C 8.21875 108.808594 7.78125 109.542969 7.375 110.296875 C 6.972656 111.054688 6.605469 111.828125 6.277344 112.617188 C 5.949219 113.410156 5.660156 114.214844 5.414062 115.035156 C 5.164062 115.851562 4.957031 116.683594 4.789062 117.523438 C 4.621094 118.363281 4.496094 119.210938 4.410156 120.0625 C 4.328125 120.914062 4.285156 121.769531 4.285156 122.625 L 4.285156 148.773438 C 4.285156 149.628906 4.328125 150.484375 4.410156 151.335938 C 4.496094 152.1875 4.621094 153.035156 4.789062 153.875 C 4.957031 154.714844 5.164062 155.546875 5.414062 156.363281 C 5.660156 157.183594 5.949219 157.988281 6.277344 158.78125 C 6.605469 159.570312 6.972656 160.34375 7.375 161.101562 C 7.78125 161.855469 8.21875 162.589844 8.695312 163.300781 C 9.171875 164.015625 9.683594 164.699219 10.226562 165.363281 C 10.769531 166.023438 11.34375 166.660156 11.953125 167.265625 C 12.558594 167.871094 13.191406 168.445312 13.855469 168.988281 C 14.515625 169.53125 15.203125 170.039062 15.917969 170.515625 C 16.628906 170.992188 17.363281 171.433594 18.121094 171.835938 C 18.875 172.238281 19.652344 172.605469 20.441406 172.933594 C 21.234375 173.261719 22.039062 173.546875 22.859375 173.796875 C 23.679688 174.046875 24.511719 174.253906 25.351562 174.421875 C 26.191406 174.589844 27.039062 174.714844 27.894531 174.796875 C 28.746094 174.882812 29.601562 174.921875 30.457031 174.921875 L 344.53125 174.921875 C 345.390625 174.921875 346.242188 174.882812 347.097656 174.796875 C 347.949219 174.714844 348.796875 174.589844 349.636719 174.421875 C 350.476562 174.253906 351.308594 174.046875 352.128906 173.796875 C 352.949219 173.546875 353.753906 173.261719 354.546875 172.933594 C 355.339844 172.605469 356.113281 172.238281 356.871094 171.835938 C 357.625 171.433594 358.359375 170.992188 359.074219 170.515625 C 359.785156 170.039062 360.472656 169.53125 361.136719 168.988281 C 361.796875 168.445312 362.433594 167.871094 363.039062 167.265625 C 363.644531 166.660156 364.21875 166.023438 364.761719 165.363281 C 365.308594 164.699219 365.816406 164.015625 366.292969 163.300781 C 366.769531 162.589844 367.210938 161.855469 367.613281 161.101562 C 368.019531 160.34375 368.382812 159.570312 368.710938 158.78125 C 369.039062 157.988281 369.328125 157.183594 369.578125 156.363281 C 369.828125 155.546875 370.035156 154.714844 370.203125 153.875 C 370.367188 153.035156 370.496094 152.1875 370.578125 151.335938 C 370.664062 150.484375 370.703125 149.628906 370.703125 148.773438 L 370.703125 122.625 C 370.703125 121.769531 370.664062 120.914062 370.578125 120.0625 C 370.496094 119.210938 370.367188 118.363281 370.203125 117.523438 C 370.035156 116.683594 369.824219 115.851562 369.578125 115.035156 C 369.328125 114.214844 369.039062 113.410156 368.710938 112.617188 C 368.382812 111.828125 368.019531 111.054688 367.613281 110.296875 C 367.210938 109.542969 366.769531 108.808594 366.292969 108.097656 C 365.816406 107.382812 365.308594 106.699219 364.761719 106.035156 C 364.21875 105.375 363.644531 104.738281 363.039062 104.132812 C 362.433594 103.527344 361.796875 102.953125 361.136719 102.410156 C 360.472656 101.867188 359.785156 101.359375 359.074219 100.882812 C 358.359375 100.40625 357.625 99.964844 356.871094 99.5625 C 356.113281 99.160156 355.339844 98.792969 354.546875 98.464844 C 353.753906 98.136719 352.949219 97.851562 352.128906 97.601562 C 351.308594 97.351562 350.476562 97.144531 349.636719 96.976562 C 348.796875 96.808594 347.949219 96.683594 347.097656 96.601562 C 346.242188 96.515625 345.390625 96.476562 344.53125 96.476562 Z M 354.214844 186.691406 L 334.585938 324.238281 C 334.421875 325.402344 334.203125 326.558594 333.933594 327.707031 C 333.664062 328.851562 333.34375 329.984375 332.972656 331.101562 C 332.601562 332.21875 332.183594 333.320312 331.710938 334.398438 C 331.242188 335.480469 330.722656 336.535156 330.15625 337.570312 C 329.59375 338.601562 328.980469 339.609375 328.324219 340.585938 C 327.667969 341.5625 326.96875 342.511719 326.226562 343.425781 C 325.484375 344.339844 324.703125 345.222656 323.882812 346.066406 C 323.0625 346.910156 322.207031 347.71875 321.3125 348.488281 C 320.417969 349.253906 319.492188 349.980469 318.53125 350.664062 C 317.574219 351.347656 316.585938 351.988281 315.566406 352.585938 C 314.550781 353.179688 313.507812 353.730469 312.441406 354.230469 C 311.378906 354.734375 310.289062 355.1875 309.183594 355.589844 C 308.074219 355.996094 306.953125 356.347656 305.8125 356.652344 C 304.675781 356.953125 303.523438 357.207031 302.363281 357.40625 C 301.199219 357.605469 300.03125 357.75 298.855469 357.84375 C 297.683594 357.941406 296.503906 357.980469 295.328125 357.96875 L 79.269531 357.96875 C 78.09375 357.980469 76.917969 357.941406 75.746094 357.847656 C 74.574219 357.753906 73.410156 357.609375 72.25 357.410156 C 71.089844 357.210938 69.941406 356.960938 68.804688 356.660156 C 67.667969 356.359375 66.546875 356.007812 65.441406 355.605469 C 64.335938 355.203125 63.25 354.753906 62.183594 354.253906 C 61.121094 353.753906 60.078125 353.210938 59.0625 352.617188 C 58.046875 352.023438 57.058594 351.386719 56.101562 350.703125 C 55.144531 350.023438 54.21875 349.300781 53.324219 348.535156 C 52.429688 347.769531 51.574219 346.96875 50.753906 346.125 C 49.929688 345.285156 49.148438 344.40625 48.40625 343.496094 C 47.664062 342.582031 46.964844 341.640625 46.308594 340.664062 C 45.652344 339.691406 45.039062 338.6875 44.472656 337.660156 C 43.902344 336.628906 43.382812 335.578125 42.910156 334.5 C 42.4375 333.425781 42.015625 332.328125 41.640625 331.214844 C 41.269531 330.101562 40.945312 328.972656 40.671875 327.828125 C 40.402344 326.683594 40.179688 325.53125 40.011719 324.367188 L 20.773438 186.691406 Z M 135.148438 316.652344 L 122.0625 238.203125 C 121.925781 237.347656 121.707031 236.507812 121.402344 235.695312 C 121.101562 234.878906 120.722656 234.101562 120.265625 233.359375 C 119.8125 232.617188 119.289062 231.929688 118.695312 231.292969 C 118.105469 230.652344 117.457031 230.078125 116.75 229.570312 C 116.046875 229.058594 115.296875 228.621094 114.507812 228.257812 C 113.714844 227.898438 112.898438 227.613281 112.050781 227.414062 C 111.203125 227.210938 110.347656 227.09375 109.476562 227.0625 C 108.605469 227.027344 107.742188 227.082031 106.882812 227.21875 C 106.023438 227.355469 105.183594 227.574219 104.367188 227.878906 C 103.550781 228.179688 102.773438 228.558594 102.03125 229.015625 C 101.292969 229.46875 100.601562 229.992188 99.964844 230.585938 C 99.324219 231.175781 98.75 231.824219 98.242188 232.527344 C 97.730469 233.234375 97.292969 233.980469 96.929688 234.769531 C 96.566406 235.5625 96.285156 236.378906 96.082031 237.226562 C 95.882812 238.070312 95.765625 238.929688 95.730469 239.796875 C 95.699219 240.667969 95.753906 241.53125 95.890625 242.390625 L 108.976562 320.835938 C 109.101562 321.605469 109.292969 322.355469 109.550781 323.089844 C 109.808594 323.820312 110.128906 324.527344 110.515625 325.203125 C 110.898438 325.878906 111.339844 326.515625 111.835938 327.113281 C 112.335938 327.710938 112.882812 328.257812 113.476562 328.757812 C 114.074219 329.257812 114.707031 329.699219 115.382812 330.085938 C 116.058594 330.472656 116.761719 330.796875 117.496094 331.058594 C 118.226562 331.320312 118.976562 331.515625 119.746094 331.644531 C 120.511719 331.769531 121.285156 331.828125 122.0625 331.820312 L 124.15625 331.820312 C 125.019531 331.691406 125.863281 331.480469 126.6875 331.1875 C 127.507812 330.890625 128.292969 330.515625 129.039062 330.066406 C 129.785156 329.613281 130.480469 329.089844 131.121094 328.5 C 131.765625 327.910156 132.34375 327.257812 132.855469 326.550781 C 133.367188 325.847656 133.804688 325.09375 134.164062 324.300781 C 134.527344 323.507812 134.804688 322.683594 135.003906 321.835938 C 135.199219 320.984375 135.3125 320.125 135.335938 319.25 C 135.359375 318.378906 135.296875 317.511719 135.148438 316.652344 Z M 200.582031 240.296875 C 200.582031 239.4375 200.496094 238.589844 200.328125 237.746094 C 200.164062 236.902344 199.914062 236.085938 199.585938 235.292969 C 199.257812 234.5 198.851562 233.746094 198.375 233.03125 C 197.898438 232.320312 197.355469 231.660156 196.75 231.050781 C 196.140625 230.445312 195.480469 229.902344 194.765625 229.425781 C 194.050781 228.949219 193.296875 228.546875 192.503906 228.21875 C 191.710938 227.890625 190.890625 227.640625 190.046875 227.472656 C 189.207031 227.304688 188.355469 227.222656 187.496094 227.222656 C 186.636719 227.222656 185.785156 227.304688 184.941406 227.472656 C 184.097656 227.640625 183.28125 227.890625 182.488281 228.21875 C 181.691406 228.546875 180.9375 228.949219 180.222656 229.425781 C 179.511719 229.902344 178.847656 230.445312 178.242188 231.050781 C 177.632812 231.660156 177.089844 232.320312 176.613281 233.03125 C 176.136719 233.746094 175.734375 234.5 175.40625 235.292969 C 175.074219 236.085938 174.828125 236.902344 174.660156 237.746094 C 174.492188 238.589844 174.410156 239.4375 174.410156 240.296875 L 174.410156 318.746094 C 174.410156 319.605469 174.492188 320.453125 174.660156 321.296875 C 174.828125 322.136719 175.074219 322.957031 175.40625 323.75 C 175.734375 324.542969 176.136719 325.296875 176.613281 326.007812 C 177.089844 326.722656 177.632812 327.382812 178.242188 327.992188 C 178.847656 328.597656 179.511719 329.140625 180.222656 329.617188 C 180.9375 330.09375 181.691406 330.496094 182.488281 330.824219 C 183.28125 331.152344 184.097656 331.402344 184.941406 331.570312 C 185.785156 331.734375 186.636719 331.820312 187.496094 331.820312 C 188.355469 331.820312 189.207031 331.734375 190.046875 331.570312 C 190.890625 331.402344 191.710938 331.152344 192.503906 330.824219 C 193.296875 330.496094 194.050781 330.09375 194.765625 329.617188 C 195.480469 329.140625 196.140625 328.597656 196.75 327.992188 C 197.355469 327.382812 197.898438 326.722656 198.375 326.007812 C 198.851562 325.296875 199.257812 324.542969 199.585938 323.75 C 199.914062 322.957031 200.164062 322.136719 200.328125 321.296875 C 200.496094 320.453125 200.582031 319.605469 200.582031 318.746094 Z M 279.101562 242.390625 C 279.238281 241.53125 279.292969 240.664062 279.257812 239.796875 C 279.226562 238.925781 279.109375 238.070312 278.910156 237.222656 C 278.707031 236.375 278.425781 235.558594 278.0625 234.765625 C 277.699219 233.976562 277.265625 233.226562 276.753906 232.523438 C 276.242188 231.816406 275.667969 231.167969 275.03125 230.578125 C 274.390625 229.984375 273.703125 229.460938 272.960938 229.007812 C 272.21875 228.550781 271.441406 228.171875 270.625 227.867188 C 269.808594 227.566406 268.96875 227.347656 268.109375 227.207031 C 267.25 227.070312 266.382812 227.019531 265.515625 227.050781 C 264.644531 227.085938 263.785156 227.203125 262.9375 227.402344 C 262.089844 227.605469 261.273438 227.890625 260.480469 228.253906 C 259.691406 228.617188 258.941406 229.050781 258.238281 229.5625 C 257.53125 230.074219 256.882812 230.648438 256.292969 231.285156 C 255.699219 231.925781 255.175781 232.613281 254.722656 233.355469 C 254.265625 234.097656 253.886719 234.875 253.585938 235.691406 C 253.28125 236.507812 253.0625 237.347656 252.925781 238.203125 L 239.839844 316.652344 C 239.691406 317.511719 239.628906 318.378906 239.652344 319.25 C 239.679688 320.125 239.789062 320.984375 239.984375 321.835938 C 240.183594 322.683594 240.460938 323.507812 240.824219 324.300781 C 241.1875 325.09375 241.625 325.847656 242.136719 326.550781 C 242.648438 327.257812 243.226562 327.910156 243.867188 328.5 C 244.511719 329.089844 245.203125 329.613281 245.953125 330.066406 C 246.699219 330.515625 247.484375 330.890625 248.304688 331.1875 C 249.125 331.480469 249.96875 331.691406 250.832031 331.820312 L 252.925781 331.820312 C 253.703125 331.828125 254.476562 331.769531 255.246094 331.644531 C 256.011719 331.515625 256.761719 331.320312 257.496094 331.058594 C 258.226562 330.796875 258.929688 330.472656 259.605469 330.085938 C 260.28125 329.699219 260.917969 329.257812 261.511719 328.757812 C 262.109375 328.257812 262.65625 327.710938 263.152344 327.113281 C 263.648438 326.515625 264.089844 325.878906 264.476562 325.203125 C 264.859375 324.527344 265.179688 323.820312 265.4375 323.089844 C 265.699219 322.355469 265.890625 321.605469 266.011719 320.835938 Z M 279.101562 242.390625 " fill-opacity="1" fill-rule="nonzero"/></g></svg>