<svg xmlns="http://www.w3.org/2000/svg" xmlns:xlink="http://www.w3.org/1999/xlink" width="500" zoomAndPan="magnify" viewBox="0 0 375 374.999991" height="500" preserveAspectRatio="xMidYMid meet" version="1.0"><defs><clipPath id="41145739d1"><path d="M 6 125 L 368.988281 125 L 368.988281 166 L 6 166 Z M 6 125 " clip-rule="nonzero"/></clipPath><clipPath id="a688863f0c"><path d="M 45 318 L 86 318 L 86 357.832031 L 45 357.832031 Z M 45 318 " clip-rule="nonzero"/></clipPath><clipPath id="334fb9a64e"><path d="M 340 153 L 368.988281 153 L 368.988281 183 L 340 183 Z M 340 153 " clip-rule="nonzero"/></clipPath><clipPath id="0d63d2b566"><path d="M 289 318 L 330 318 L 330 357.832031 L 289 357.832031 Z M 289 318 " clip-rule="nonzero"/></clipPath><clipPath id="062117a33e"><path d="M 74 346 L 301 346 L 301 357.832031 L 74 357.832031 Z M 74 346 " clip-rule="nonzero"/></clipPath><clipPath id="784b4f08d6"><path d="M 204 17.332031 L 243 17.332031 L 243 51 L 204 51 Z M 204 17.332031 " clip-rule="nonzero"/></clipPath><clipPath id="ba51df329d"><path d="M 132 17.332031 L 171 17.332031 L 171 51 L 132 51 Z M 132 17.332031 " clip-rule="nonzero"/></clipPath></defs><g clip-path="url(#41145739d1)"><path fill="#a2c11c" d="M 363.019531 165.207031 L 11.957031 165.207031 C 8.828125 165.207031 6.296875 162.675781 6.296875 159.542969 L 6.296875 131.214844 C 6.296875 128.082031 8.828125 125.550781 11.957031 125.550781 L 363.019531 125.550781 C 366.148438 125.550781 368.679688 128.082031 368.679688 131.214844 L 368.679688 159.542969 C 368.679688 162.675781 366.148438 165.207031 363.019531 165.207031 Z M 17.621094 153.878906 L 357.355469 153.878906 L 357.355469 136.882812 L 17.621094 136.882812 Z M 17.621094 153.878906 " fill-opacity="1" fill-rule="nonzero"/></g><path fill="#a2c11c" d="M 28.9375 182.207031 C 26.210938 182.207031 23.804688 180.222656 23.355469 177.433594 C 22.410156 171.546875 18.445312 165.207031 11.957031 165.207031 C 8.828125 165.207031 6.296875 162.675781 6.296875 159.542969 C 6.296875 156.410156 8.828125 153.878906 11.957031 153.878906 C 25.070312 153.878906 32.851562 165.15625 34.53125 175.644531 C 35.03125 178.734375 32.929688 181.644531 29.839844 182.136719 C 29.53125 182.183594 29.238281 182.207031 28.9375 182.207031 Z M 28.9375 182.207031 " fill-opacity="1" fill-rule="nonzero"/><g clip-path="url(#a688863f0c)"><path fill="#a2c11c" d="M 79.90625 357.832031 C 61.984375 357.832031 49.3125 345.457031 46.003906 324.726562 C 45.511719 321.640625 47.613281 318.734375 50.703125 318.242188 C 53.800781 317.730469 56.699219 319.855469 57.1875 322.945312 C 58.320312 330.03125 62.792969 346.5 79.90625 346.5 C 83.035156 346.5 85.566406 349.035156 85.566406 352.167969 C 85.566406 355.300781 83.035156 357.832031 79.90625 357.832031 Z M 79.90625 357.832031 " fill-opacity="1" fill-rule="nonzero"/></g><path fill="#a2c11c" d="M 51.585938 329.503906 C 48.839844 329.503906 46.429688 327.5 46 324.699219 L 23.351562 177.402344 C 22.875 174.308594 24.992188 171.414062 28.082031 170.9375 C 31.230469 170.445312 34.070312 172.585938 34.542969 175.671875 L 57.191406 322.972656 C 57.667969 326.066406 55.550781 328.960938 52.460938 329.4375 C 52.164062 329.480469 51.871094 329.503906 51.585938 329.503906 Z M 51.585938 329.503906 " fill-opacity="1" fill-rule="nonzero"/><g clip-path="url(#334fb9a64e)"><path fill="#a2c11c" d="M 346.035156 182.207031 C 345.738281 182.207031 345.441406 182.183594 345.136719 182.132812 C 342.046875 181.640625 339.945312 178.726562 340.441406 175.640625 C 342.125 165.152344 349.902344 153.871094 363.019531 153.871094 C 366.148438 153.871094 368.679688 156.40625 368.679688 159.539062 C 368.679688 162.671875 366.148438 165.203125 363.019531 165.203125 C 356.527344 165.203125 352.566406 171.542969 351.621094 177.429688 C 351.171875 180.222656 348.765625 182.207031 346.035156 182.207031 Z M 346.035156 182.207031 " fill-opacity="1" fill-rule="nonzero"/></g><g clip-path="url(#0d63d2b566)"><path fill="#a2c11c" d="M 295.070312 357.832031 C 291.941406 357.832031 289.410156 355.300781 289.410156 352.167969 C 289.410156 349.035156 291.941406 346.5 295.070312 346.5 C 312.183594 346.5 316.660156 330.03125 317.792969 322.949219 C 318.285156 319.863281 321.207031 317.742188 324.277344 318.246094 C 327.367188 318.738281 329.46875 321.644531 328.976562 324.734375 C 325.664062 345.457031 312.992188 357.832031 295.070312 357.832031 Z M 295.070312 357.832031 " fill-opacity="1" fill-rule="nonzero"/></g><path fill="#a2c11c" d="M 323.386719 329.503906 C 323.097656 329.503906 322.808594 329.480469 322.523438 329.4375 C 319.429688 328.960938 317.3125 326.066406 317.789062 322.972656 L 340.4375 175.671875 C 340.917969 172.578125 343.8125 170.476562 346.898438 170.9375 C 349.988281 171.414062 352.105469 174.308594 351.632812 177.402344 L 328.980469 324.699219 C 328.546875 327.5 326.132812 329.503906 323.386719 329.503906 Z M 323.386719 329.503906 " fill-opacity="1" fill-rule="nonzero"/><g clip-path="url(#062117a33e)"><path fill="#a2c11c" d="M 295.070312 357.832031 L 79.90625 357.832031 C 76.773438 357.832031 74.242188 355.300781 74.242188 352.167969 C 74.242188 349.035156 76.773438 346.5 79.90625 346.5 L 295.070312 346.5 C 298.203125 346.5 300.734375 349.035156 300.734375 352.167969 C 300.734375 355.300781 298.203125 357.832031 295.070312 357.832031 Z M 295.070312 357.832031 " fill-opacity="1" fill-rule="nonzero"/></g><path fill="#a2c11c" d="M 125.195312 306.84375 C 122.367188 306.84375 119.914062 304.722656 119.582031 301.839844 L 108.253906 205.523438 C 107.894531 202.414062 110.113281 199.597656 113.214844 199.234375 C 116.347656 198.835938 119.136719 201.089844 119.5 204.199219 L 130.824219 300.515625 C 131.1875 303.625 128.96875 306.441406 125.867188 306.800781 C 125.640625 306.832031 125.417969 306.84375 125.195312 306.84375 Z M 125.195312 306.84375 " fill-opacity="1" fill-rule="nonzero"/><path fill="#a2c11c" d="M 187.488281 306.84375 C 184.355469 306.84375 181.824219 304.308594 181.824219 301.175781 L 181.824219 204.863281 C 181.824219 201.730469 184.355469 199.195312 187.488281 199.195312 C 190.617188 199.195312 193.148438 201.730469 193.148438 204.863281 L 193.148438 301.175781 C 193.148438 304.308594 190.617188 306.84375 187.488281 306.84375 Z M 187.488281 306.84375 " fill-opacity="1" fill-rule="nonzero"/><path fill="#a2c11c" d="M 249.777344 306.84375 C 249.558594 306.84375 249.335938 306.832031 249.109375 306.800781 C 246.007812 306.441406 243.789062 303.617188 244.148438 300.515625 L 255.472656 204.199219 C 255.835938 201.089844 258.632812 198.84375 261.757812 199.234375 C 264.863281 199.597656 267.082031 202.421875 266.71875 205.523438 L 255.394531 301.839844 C 255.0625 304.722656 252.609375 306.84375 249.777344 306.84375 Z M 249.777344 306.84375 " fill-opacity="1" fill-rule="nonzero"/><path fill="#a2c11c" d="M 261.894531 136.875 C 259.9375 136.875 258.035156 135.863281 256.988281 134.042969 L 207.136719 47.648438 C 205.574219 44.933594 206.5 41.472656 209.207031 39.910156 C 211.902344 38.339844 215.375 39.269531 216.941406 41.984375 L 266.792969 128.378906 C 268.355469 131.089844 267.425781 134.550781 264.722656 136.117188 C 263.828125 136.632812 262.859375 136.875 261.894531 136.875 Z M 261.894531 136.875 " fill-opacity="1" fill-rule="nonzero"/><path fill="#a2c11c" d="M 294.566406 136.851562 C 292.609375 136.851562 290.707031 135.832031 289.65625 134.019531 L 231.652344 33.484375 C 230.089844 30.769531 231.019531 27.308594 233.726562 25.746094 C 236.425781 24.183594 239.890625 25.109375 241.460938 27.820312 L 299.464844 128.355469 C 301.027344 131.066406 300.097656 134.53125 297.390625 136.09375 C 296.503906 136.609375 295.53125 136.851562 294.566406 136.851562 Z M 294.566406 136.851562 " fill-opacity="1" fill-rule="nonzero"/><g clip-path="url(#784b4f08d6)"><path fill="#a2c11c" d="M 212.039062 50.480469 C 210.082031 50.480469 208.171875 49.460938 207.128906 47.644531 C 201.671875 38.171875 204.925781 26.023438 214.390625 20.5625 C 218.976562 17.910156 224.320312 17.203125 229.421875 18.578125 C 234.535156 19.949219 238.8125 23.230469 241.453125 27.824219 C 243.019531 30.539062 242.082031 34 239.375 35.558594 C 236.664062 37.121094 233.199219 36.1875 231.648438 33.480469 C 230.515625 31.511719 228.6875 30.109375 226.496094 29.523438 C 224.292969 28.933594 222.015625 29.234375 220.050781 30.375 C 215.992188 32.714844 214.597656 37.921875 216.9375 41.988281 C 218.5 44.703125 217.566406 48.164062 214.859375 49.722656 C 213.96875 50.238281 212.996094 50.480469 212.039062 50.480469 Z M 212.039062 50.480469 " fill-opacity="1" fill-rule="nonzero"/></g><path fill="#a2c11c" d="M 113.078125 136.882812 C 112.117188 136.882812 111.144531 136.636719 110.253906 136.121094 C 107.542969 134.558594 106.613281 131.089844 108.183594 128.382812 L 158.03125 41.984375 C 159.59375 39.269531 163.0625 38.335938 165.765625 39.910156 C 168.480469 41.472656 169.40625 44.941406 167.839844 47.648438 L 117.988281 134.046875 C 116.941406 135.863281 115.039062 136.882812 113.078125 136.882812 Z M 113.078125 136.882812 " fill-opacity="1" fill-rule="nonzero"/><path fill="#a2c11c" d="M 80.398438 136.875 C 79.433594 136.875 78.460938 136.632812 77.570312 136.117188 C 74.859375 134.550781 73.929688 131.085938 75.5 128.378906 L 133.515625 27.820312 C 135.078125 25.105469 138.546875 24.175781 141.25 25.746094 C 143.960938 27.308594 144.890625 30.777344 143.320312 33.484375 L 85.304688 134.042969 C 84.257812 135.855469 82.355469 136.875 80.398438 136.875 Z M 80.398438 136.875 " fill-opacity="1" fill-rule="nonzero"/><g clip-path="url(#ba51df329d)"><path fill="#a2c11c" d="M 162.9375 50.480469 C 161.980469 50.480469 161.003906 50.238281 160.117188 49.722656 C 157.402344 48.164062 156.46875 44.695312 158.039062 41.988281 C 160.375 37.921875 158.984375 32.714844 154.925781 30.375 C 152.953125 29.234375 150.667969 28.941406 148.480469 29.523438 C 146.289062 30.113281 144.460938 31.519531 143.328125 33.480469 C 141.769531 36.191406 138.3125 37.128906 135.597656 35.558594 C 132.886719 34 131.953125 30.53125 133.519531 27.824219 C 136.164062 23.230469 140.441406 19.949219 145.554688 18.578125 C 150.660156 17.207031 156.011719 17.910156 160.585938 20.5625 C 170.046875 26.023438 173.304688 38.171875 167.84375 47.644531 C 166.804688 49.460938 164.894531 50.480469 162.9375 50.480469 Z M 162.9375 50.480469 " fill-opacity="1" fill-rule="nonzero"/></g></svg>