<svg xmlns="http://www.w3.org/2000/svg" xmlns:xlink="http://www.w3.org/1999/xlink" width="400" zoomAndPan="magnify" viewBox="0 0 300 299.999988" height="400" preserveAspectRatio="xMidYMid meet" version="1.0"><defs><clipPath id="43c7b39064"><path d="M 24.519531 19 L 275.769531 19 L 275.769531 281.792969 L 24.519531 281.792969 Z M 24.519531 19 " clip-rule="nonzero"/></clipPath></defs><g clip-path="url(#43c7b39064)"><path fill="#2c5d63" d="M 150.144531 19.089844 C 146.925781 19.089844 143.710938 20.324219 141.242188 22.789062 L 28.464844 135.582031 C 26 138.050781 24.765625 141.265625 24.765625 144.484375 C 24.765625 147.699219 24.980469 149.316406 28.464844 149.316406 L 57.8125 149.316406 L 57.8125 268.160156 C 57.8125 275.589844 63.792969 281.570312 71.222656 281.570312 L 112.296875 281.570312 C 118.398438 281.570312 123.3125 276.65625 123.3125 270.554688 L 123.3125 228.042969 C 123.3125 220.894531 129.070312 215.136719 136.21875 215.136719 L 164.070312 215.136719 C 171.21875 215.136719 176.976562 220.894531 176.976562 228.042969 L 176.976562 270.554688 C 176.976562 276.65625 181.890625 281.570312 187.992188 281.570312 L 229.066406 281.570312 C 236.496094 281.570312 242.476562 275.589844 242.476562 268.160156 L 242.476562 149.316406 L 271.824219 149.316406 C 275.308594 149.316406 275.523438 147.703125 275.523438 144.484375 C 275.523438 141.265625 274.289062 138.050781 271.824219 135.582031 L 159.046875 22.789062 C 156.578125 20.324219 153.363281 19.089844 150.144531 19.089844 Z M 150.144531 19.089844 " fill-opacity="1" fill-rule="nonzero"/></g></svg>