<svg xmlns="http://www.w3.org/2000/svg" xmlns:xlink="http://www.w3.org/1999/xlink" width="400" zoomAndPan="magnify" viewBox="0 0 300 299.999988" height="400" preserveAspectRatio="xMidYMid meet" version="1.0"><defs><clipPath id="1bc776ec81"><path d="M 43.9375 26.25 L 256.1875 26.25 L 256.1875 273.75 L 43.9375 273.75 Z M 43.9375 26.25 " clip-rule="nonzero"/></clipPath></defs><g clip-path="url(#1bc776ec81)"><path fill="#2c5d63" d="M 256.1875 52.773438 C 256.1875 38.128906 244.308594 26.257812 229.65625 26.257812 C 192.652344 26.257812 107.472656 26.257812 70.46875 26.257812 C 63.429688 26.257812 56.679688 29.050781 51.710938 34.027344 C 46.730469 38.996094 43.9375 45.738281 43.9375 52.773438 L 43.9375 247.230469 C 43.9375 261.875 55.816406 273.746094 70.46875 273.746094 C 107.472656 273.746094 192.652344 273.746094 229.65625 273.746094 C 244.308594 273.746094 256.1875 261.875 256.1875 247.230469 Z M 88.15625 211.875 L 211.96875 211.875 C 216.851562 211.875 220.8125 207.914062 220.8125 203.035156 C 220.8125 198.15625 216.851562 194.195312 211.96875 194.195312 L 88.15625 194.195312 C 83.273438 194.195312 79.3125 198.15625 79.3125 203.035156 C 79.3125 207.914062 83.273438 211.875 88.15625 211.875 Z M 88.15625 158.839844 L 211.96875 158.839844 C 216.851562 158.839844 220.8125 154.878906 220.8125 150 C 220.8125 145.121094 216.851562 141.164062 211.96875 141.164062 L 88.15625 141.164062 C 83.273438 141.164062 79.3125 145.121094 79.3125 150 C 79.3125 154.878906 83.273438 158.839844 88.15625 158.839844 Z M 88.15625 105.808594 L 211.96875 105.808594 C 216.851562 105.808594 220.8125 101.847656 220.8125 96.96875 C 220.8125 92.089844 216.851562 88.128906 211.96875 88.128906 L 88.15625 88.128906 C 83.273438 88.128906 79.3125 92.089844 79.3125 96.96875 C 79.3125 101.847656 83.273438 105.808594 88.15625 105.808594 Z M 88.15625 105.808594 " fill-opacity="1" fill-rule="evenodd"/></g></svg>