<svg xmlns="http://www.w3.org/2000/svg" xmlns:xlink="http://www.w3.org/1999/xlink" width="300" zoomAndPan="magnify" viewBox="0 0 224.87999 225" height="300" preserveAspectRatio="xMidYMid meet" version="1.0"><defs><clipPath id="bcdad23a24"><path d="M 39.945312 2.242188 L 184.617188 2.242188 L 184.617188 222 L 39.945312 222 Z M 39.945312 2.242188 " clip-rule="nonzero"/></clipPath></defs><g clip-path="url(#bcdad23a24)"><path fill="#2c5d63" d="M 112.28125 208.234375 L 172.339844 95.65625 C 173.484375 92.367188 174.328125 88.984375 174.925781 85.546875 C 175.519531 82.0625 175.820312 78.476562 175.820312 74.792969 C 175.820312 57.214844 168.710938 41.28125 157.226562 29.78125 C 145.691406 18.277344 129.832031 11.160156 112.28125 11.160156 C 94.734375 11.160156 78.875 18.277344 67.339844 29.78125 C 55.855469 41.28125 48.746094 57.214844 48.746094 74.792969 C 48.746094 78.476562 49.042969 82.0625 49.640625 85.546875 C 50.238281 88.984375 51.082031 92.367188 52.226562 95.65625 Z M 112.28125 35.207031 C 123.417969 35.207031 133.460938 39.738281 140.71875 47.058594 C 148.027344 54.328125 152.550781 64.386719 152.550781 75.539062 C 152.550781 77.828125 152.351562 80.070312 151.957031 82.3125 C 151.558594 84.550781 151.011719 86.742188 150.265625 88.882812 C 147.480469 96.851562 142.261719 103.671875 135.5 108.449219 C 128.9375 113.082031 120.933594 115.820312 112.28125 115.820312 C 103.632812 115.820312 95.628906 113.082031 89.066406 108.449219 C 82.304688 103.671875 77.132812 96.851562 74.347656 88.882812 L 74.300781 88.933594 C 73.554688 86.792969 73.007812 84.601562 72.609375 82.3125 C 72.210938 80.070312 72.011719 77.828125 72.011719 75.539062 C 72.011719 64.386719 76.535156 54.328125 83.84375 47.058594 C 91.105469 39.738281 101.144531 35.207031 112.28125 35.207031 Z M 134.554688 53.234375 C 128.835938 47.554688 120.984375 44.019531 112.28125 44.019531 C 103.582031 44.019531 95.726562 47.554688 90.011719 53.234375 C 84.34375 58.957031 80.8125 66.824219 80.8125 75.539062 C 80.8125 77.382812 80.960938 79.171875 81.261719 80.867188 C 81.558594 82.609375 82.003906 84.351562 82.550781 85.996094 C 84.738281 92.21875 88.816406 97.546875 94.085938 101.28125 C 99.207031 104.914062 105.472656 107.058594 112.28125 107.058594 C 119.09375 107.058594 125.359375 104.914062 130.476562 101.28125 C 135.75 97.546875 139.824219 92.21875 142.011719 85.996094 C 142.558594 84.351562 143.007812 82.660156 143.304688 80.867188 C 143.601562 79.171875 143.753906 77.382812 143.753906 75.539062 C 143.753906 66.824219 140.222656 58.957031 134.554688 53.234375 Z M 180.242188 99.390625 L 116.160156 219.535156 C 115.761719 220.332031 115.164062 220.980469 114.320312 221.378906 C 112.234375 222.523438 109.546875 221.726562 108.40625 219.585938 L 44.46875 99.6875 C 44.320312 99.390625 44.171875 99.140625 44.074219 98.792969 C 42.730469 95.007812 41.6875 91.023438 40.988281 86.992188 C 40.34375 82.957031 39.945312 78.925781 39.945312 74.792969 C 39.945312 54.777344 48.050781 36.703125 61.175781 23.558594 C 74.25 10.460938 92.296875 2.347656 112.28125 2.347656 C 132.269531 2.347656 150.316406 10.460938 163.390625 23.558594 C 176.515625 36.703125 184.617188 54.777344 184.617188 74.792969 C 184.617188 78.925781 184.222656 82.957031 183.574219 86.992188 C 182.878906 91.023438 181.835938 95.007812 180.492188 98.792969 C 180.441406 98.992188 180.34375 99.191406 180.242188 99.390625 Z M 180.242188 99.390625 " fill-opacity="1" fill-rule="nonzero"/></g></svg>