<svg xmlns="http://www.w3.org/2000/svg" xmlns:xlink="http://www.w3.org/1999/xlink" width="300" zoomAndPan="magnify" viewBox="0 0 224.87999 225" height="300" preserveAspectRatio="xMidYMid meet" version="1.0"><defs><clipPath id="04ae33337f"><path d="M 37.21875 5.042969 L 187.890625 5.042969 L 187.890625 220.179688 L 37.21875 220.179688 Z M 37.21875 5.042969 " clip-rule="nonzero"/></clipPath></defs><g clip-path="url(#04ae33337f)"><path fill="#2c5d63" d="M 112.554688 5.046875 C 70.960938 5.046875 37.21875 38.765625 37.21875 80.339844 C 37.21875 136.8125 112.554688 220.175781 112.554688 220.175781 C 112.554688 220.175781 187.890625 136.8125 187.890625 80.339844 C 187.890625 38.765625 154.148438 5.046875 112.554688 5.046875 Z M 112.554688 107.230469 C 97.703125 107.230469 85.648438 95.183594 85.648438 80.339844 C 85.648438 65.496094 97.703125 53.449219 112.554688 53.449219 C 127.40625 53.449219 139.460938 65.496094 139.460938 80.339844 C 139.460938 95.183594 127.40625 107.230469 112.554688 107.230469 Z M 112.554688 107.230469 " fill-opacity="1" fill-rule="nonzero"/></g></svg>