<svg xmlns="http://www.w3.org/2000/svg" xmlns:xlink="http://www.w3.org/1999/xlink" width="400" zoomAndPan="magnify" viewBox="0 0 300 299.999988" height="400" preserveAspectRatio="xMidYMid meet" version="1.0"><defs><clipPath id="746f7dadba"><path d="M 117 265 L 183 265 L 183 291.105469 L 117 291.105469 Z M 117 265 " clip-rule="nonzero"/></clipPath><clipPath id="af55ae4011"><path d="M 21.914062 9.105469 L 278.414062 9.105469 L 278.414062 253 L 21.914062 253 Z M 21.914062 9.105469 " clip-rule="nonzero"/></clipPath></defs><g clip-path="url(#746f7dadba)"><path fill="#a2c11c" d="M 182.40625 266.554688 C 181.777344 265.644531 180.519531 265.015625 179.71875 265.128906 L 120.777344 265.472656 C 120.777344 265.472656 118.664062 266.042969 118.09375 266.957031 C 117.523438 267.871094 117.410156 269.011719 117.867188 269.980469 C 123.464844 282.824219 136.199219 291.101562 150.191406 291.101562 C 164.414062 291.101562 177.148438 282.652344 182.691406 269.582031 C 183.089844 268.554688 182.976562 267.414062 182.40625 266.554688 Z M 182.40625 266.554688 " fill-opacity="1" fill-rule="nonzero"/></g><g clip-path="url(#af55ae4011)"><path fill="#a2c11c" d="M 276.128906 234.933594 L 239.976562 204.792969 L 239.976562 124.476562 C 239.976562 83.773438 212.675781 49.351562 175.4375 38.390625 C 175.609375 37.195312 175.835938 35.996094 175.835938 34.738281 C 175.835938 20.582031 164.355469 9.109375 150.191406 9.109375 C 136.027344 9.109375 124.546875 20.582031 124.546875 34.738281 C 124.546875 35.996094 124.777344 37.195312 124.949219 38.390625 C 87.710938 49.351562 60.410156 83.714844 60.410156 124.476562 L 60.410156 204.792969 L 24.199219 234.933594 C 22.714844 236.128906 21.914062 237.957031 21.914062 239.839844 L 21.914062 246.234375 C 21.914062 249.773438 24.769531 252.628906 28.3125 252.628906 L 272.015625 252.628906 C 275.558594 252.628906 278.414062 249.773438 278.414062 246.234375 L 278.414062 239.839844 C 278.414062 237.957031 277.558594 236.128906 276.128906 234.933594 Z M 137.457031 35.765625 C 137.457031 35.421875 137.339844 35.082031 137.339844 34.738281 C 137.339844 27.660156 143.109375 21.894531 150.191406 21.894531 C 157.273438 21.894531 162.984375 27.660156 162.984375 34.738281 C 162.984375 35.082031 162.929688 35.421875 162.871094 35.765625 C 158.703125 35.195312 154.476562 34.738281 150.136719 34.738281 C 145.792969 34.738281 141.625 35.136719 137.457031 35.765625 Z M 137.457031 35.765625 " fill-opacity="1" fill-rule="nonzero"/></g></svg>