<svg xmlns="http://www.w3.org/2000/svg" xmlns:xlink="http://www.w3.org/1999/xlink" width="300" zoomAndPan="magnify" viewBox="0 0 224.87999 225" height="300" preserveAspectRatio="xMidYMid meet" version="1.0"><defs><clipPath id="d45e09b422"><path d="M 3.144531 3.207031 L 222.027344 3.207031 L 222.027344 222.089844 L 3.144531 222.089844 Z M 3.144531 3.207031 " clip-rule="nonzero"/></clipPath></defs><g clip-path="url(#d45e09b422)"><path fill="#e0e0e0" d="M 112.585938 3.207031 C 52.242188 3.207031 3.144531 52.300781 3.144531 112.648438 C 3.144531 172.992188 52.242188 222.089844 112.585938 222.089844 C 172.933594 222.089844 222.027344 172.992188 222.027344 112.648438 C 222.027344 52.300781 172.933594 3.207031 112.585938 3.207031 Z M 112.585938 207.496094 C 60.285156 207.496094 17.738281 164.949219 17.738281 112.648438 C 17.738281 60.34375 60.285156 17.796875 112.585938 17.796875 C 164.886719 17.796875 207.4375 60.34375 207.4375 112.648438 C 207.4375 164.949219 164.886719 207.496094 112.585938 207.496094 Z M 112.585938 207.496094 " fill-opacity="1" fill-rule="nonzero"/></g><path fill="#e0e0e0" d="M 150.757812 105.351562 L 119.882812 105.351562 L 119.882812 74.472656 C 119.882812 70.445312 116.617188 67.179688 112.585938 67.179688 C 108.558594 67.179688 105.289062 70.445312 105.289062 74.472656 L 105.289062 105.351562 L 74.414062 105.351562 C 70.386719 105.351562 67.117188 108.617188 67.117188 112.648438 C 67.117188 116.675781 70.382812 119.941406 74.414062 119.941406 L 105.289062 119.941406 L 105.289062 150.820312 C 105.289062 154.847656 108.558594 158.117188 112.585938 158.117188 C 116.617188 158.117188 119.882812 154.847656 119.882812 150.820312 L 119.882812 119.941406 L 150.757812 119.941406 C 154.789062 119.941406 158.054688 116.675781 158.054688 112.648438 C 158.054688 108.617188 154.789062 105.351562 150.757812 105.351562 Z M 150.757812 105.351562 " fill-opacity="1" fill-rule="nonzero"/></svg>