<svg xmlns="http://www.w3.org/2000/svg" xmlns:xlink="http://www.w3.org/1999/xlink" width="400" zoomAndPan="magnify" viewBox="0 0 300 299.999988" height="400" preserveAspectRatio="xMidYMid meet" version="1.0"><defs><clipPath id="f15d1033d4"><path d="M 12.125 159 L 288.125 159 L 288.125 289 L 12.125 289 Z M 12.125 159 " clip-rule="nonzero"/></clipPath></defs><g clip-path="url(#f15d1033d4)"><path fill="#283739" d="M 198.898438 159.953125 C 184.382812 171.367188 166.101562 178.203125 146.238281 178.203125 C 126.867188 178.203125 108.992188 171.710938 94.652344 160.796875 C 47.867188 168.351562 12.125 208.894531 12.125 257.789062 C 12.125 312.070312 56.152344 276.78125 110.460938 276.78125 L 189.789062 276.78125 C 244.097656 276.78125 288.125 312.070312 288.125 257.789062 C 288.125 206.589844 248.933594 164.546875 198.898438 159.953125 Z M 198.898438 159.953125 " fill-opacity="1" fill-rule="nonzero"/></g><path fill="#283739" d="M 146.238281 166.765625 C 186.980469 166.765625 220.121094 133.636719 220.121094 92.917969 C 220.121094 52.203125 186.980469 19.078125 146.238281 19.078125 C 105.496094 19.078125 72.351562 52.203125 72.351562 92.917969 C 72.355469 133.636719 105.5 166.765625 146.238281 166.765625 Z M 146.238281 166.765625 " fill-opacity="1" fill-rule="nonzero"/></svg>