<svg xmlns="http://www.w3.org/2000/svg" xmlns:xlink="http://www.w3.org/1999/xlink" width="300" zoomAndPan="magnify" viewBox="0 0 224.87999 225" height="300" preserveAspectRatio="xMidYMid meet" version="1.0"><defs><clipPath id="cfd826be7c"><path d="M 4.324219 4.382812 L 220.210938 4.382812 L 220.210938 220.269531 L 4.324219 220.269531 Z M 4.324219 4.382812 " clip-rule="nonzero"/></clipPath></defs><path fill="#ffffff" d="M 144.128906 105.644531 C 144.128906 106.910156 144.066406 108.167969 143.941406 109.425781 C 143.820312 110.679688 143.632812 111.925781 143.386719 113.164062 C 143.140625 114.402344 142.835938 115.625 142.46875 116.835938 C 142.101562 118.042969 141.675781 119.230469 141.195312 120.394531 C 140.710938 121.5625 140.171875 122.703125 139.578125 123.816406 C 138.980469 124.929688 138.332031 126.007812 137.632812 127.058594 C 136.929688 128.109375 136.179688 129.121094 135.378906 130.097656 C 134.578125 131.074219 133.730469 132.007812 132.839844 132.898438 C 131.945312 133.792969 131.011719 134.636719 130.035156 135.4375 C 129.0625 136.238281 128.046875 136.992188 127 137.691406 C 125.949219 138.394531 124.867188 139.042969 123.753906 139.636719 C 122.640625 140.230469 121.5 140.769531 120.335938 141.253906 C 119.167969 141.738281 117.980469 142.160156 116.773438 142.527344 C 115.566406 142.894531 114.34375 143.199219 113.105469 143.445312 C 111.867188 143.695312 110.621094 143.878906 109.363281 144.003906 C 108.109375 144.125 106.847656 144.1875 105.585938 144.1875 C 104.324219 144.1875 103.066406 144.125 101.808594 144.003906 C 100.550781 143.878906 99.304688 143.695312 98.066406 143.445312 C 96.828125 143.199219 95.605469 142.894531 94.398438 142.527344 C 93.191406 142.160156 92.003906 141.738281 90.835938 141.253906 C 89.671875 140.769531 88.53125 140.230469 87.417969 139.636719 C 86.304688 139.042969 85.222656 138.394531 84.175781 137.691406 C 83.125 136.992188 82.113281 136.238281 81.136719 135.4375 C 80.160156 134.636719 79.226562 133.792969 78.332031 132.898438 C 77.441406 132.007812 76.59375 131.074219 75.792969 130.097656 C 74.992188 129.121094 74.242188 128.109375 73.539062 127.058594 C 72.839844 126.007812 72.191406 124.929688 71.597656 123.816406 C 71 122.703125 70.460938 121.5625 69.980469 120.394531 C 69.496094 119.230469 69.070312 118.042969 68.703125 116.835938 C 68.339844 115.625 68.03125 114.402344 67.785156 113.164062 C 67.539062 111.925781 67.355469 110.679688 67.230469 109.425781 C 67.105469 108.167969 67.046875 106.910156 67.046875 105.644531 C 67.046875 104.382812 67.105469 103.125 67.230469 101.867188 C 67.355469 100.613281 67.539062 99.367188 67.785156 98.128906 C 68.03125 96.890625 68.339844 95.667969 68.703125 94.457031 C 69.070312 93.25 69.496094 92.0625 69.980469 90.898438 C 70.460938 89.730469 71 88.589844 71.597656 87.476562 C 72.191406 86.363281 72.839844 85.285156 73.539062 84.234375 C 74.242188 83.183594 74.992188 82.171875 75.792969 81.195312 C 76.59375 80.21875 77.441406 79.285156 78.332031 78.394531 C 79.226562 77.5 80.160156 76.65625 81.136719 75.855469 C 82.113281 75.054688 83.125 74.300781 84.175781 73.601562 C 85.222656 72.898438 86.304688 72.25 87.417969 71.65625 C 88.53125 71.0625 89.671875 70.523438 90.835938 70.039062 C 92.003906 69.554688 93.191406 69.132812 94.398438 68.765625 C 95.605469 68.398438 96.828125 68.09375 98.066406 67.84375 C 99.304688 67.597656 100.550781 67.414062 101.808594 67.289062 C 103.066406 67.167969 104.324219 67.105469 105.585938 67.105469 C 106.847656 67.105469 108.109375 67.167969 109.363281 67.289062 C 110.621094 67.414062 111.867188 67.597656 113.105469 67.84375 C 114.34375 68.09375 115.566406 68.398438 116.773438 68.765625 C 117.980469 69.132812 119.167969 69.554688 120.335938 70.039062 C 121.5 70.523438 122.640625 71.0625 123.753906 71.65625 C 124.867188 72.25 125.949219 72.898438 127 73.601562 C 128.046875 74.300781 129.0625 75.054688 130.035156 75.855469 C 131.011719 76.65625 131.945312 77.5 132.839844 78.394531 C 133.730469 79.285156 134.578125 80.21875 135.378906 81.195312 C 136.179688 82.171875 136.929688 83.183594 137.632812 84.234375 C 138.332031 85.285156 138.980469 86.363281 139.578125 87.476562 C 140.171875 88.589844 140.710938 89.730469 141.195312 90.898438 C 141.675781 92.0625 142.101562 93.25 142.46875 94.457031 C 142.835938 95.667969 143.140625 96.890625 143.386719 98.128906 C 143.632812 99.367188 143.820312 100.613281 143.941406 101.867188 C 144.066406 103.125 144.128906 104.382812 144.128906 105.644531 Z M 144.128906 105.644531 " fill-opacity="1" fill-rule="nonzero"/><g clip-path="url(#cfd826be7c)"><path fill="#ffffff" d="M 112.265625 4.382812 C 52.652344 4.382812 4.324219 52.710938 4.324219 112.328125 C 4.324219 171.941406 52.652344 220.269531 112.265625 220.269531 C 171.882812 220.269531 220.210938 171.941406 220.210938 112.328125 C 220.210938 52.710938 171.882812 4.382812 112.265625 4.382812 Z M 175.035156 175.09375 C 171.019531 179.109375 164.511719 179.109375 160.5 175.09375 L 139.472656 154.066406 C 129.898438 160.777344 118.25 164.722656 105.675781 164.742188 C 73.480469 164.792969 47.015625 138.816406 46.496094 106.625 C 45.957031 73.210938 73.152344 46.015625 106.5625 46.558594 C 138.753906 47.078125 164.730469 73.542969 164.683594 105.738281 C 164.664062 118.308594 160.714844 129.960938 154.007812 139.53125 L 175.035156 160.558594 C 179.046875 164.574219 179.046875 171.082031 175.035156 175.09375 Z M 175.035156 175.09375 " fill-opacity="1" fill-rule="nonzero"/></g></svg>