<svg xmlns="http://www.w3.org/2000/svg" xmlns:xlink="http://www.w3.org/1999/xlink" width="100" zoomAndPan="magnify" viewBox="0 0 75 74.999997" height="100" preserveAspectRatio="xMidYMid meet" version="1.0"><defs><clipPath id="81cf86b608"><path d="M 3.835938 3.835938 L 71 3.835938 L 71 71 L 3.835938 71 Z M 3.835938 3.835938 " clip-rule="nonzero"/></clipPath></defs><g clip-path="url(#81cf86b608)"><path fill="#283739" d="M 47.222656 53.195312 L 63.757812 69.722656 C 65.394531 71.359375 68.050781 71.359375 69.6875 69.722656 C 71.324219 68.085938 71.324219 65.425781 69.6875 63.789062 L 53.164062 47.273438 C 56.488281 42.753906 58.453125 37.171875 58.453125 31.132812 C 58.453125 16.066406 46.222656 3.835938 31.15625 3.835938 C 16.09375 3.835938 3.863281 16.066406 3.863281 31.132812 C 3.863281 46.199219 16.09375 58.429688 31.15625 58.429688 C 37.160156 58.429688 42.714844 56.488281 47.222656 53.195312 Z M 31.15625 12.226562 C 41.59375 12.226562 50.066406 20.699219 50.066406 31.132812 C 50.066406 41.566406 41.59375 50.039062 31.15625 50.039062 C 20.722656 50.039062 12.253906 41.566406 12.253906 31.132812 C 12.253906 20.699219 20.722656 12.226562 31.15625 12.226562 Z M 31.15625 12.226562 " fill-opacity="1" fill-rule="evenodd"/></g></svg>