<svg xmlns="http://www.w3.org/2000/svg" xmlns:xlink="http://www.w3.org/1999/xlink" width="100" zoomAndPan="magnify" viewBox="0 0 75 74.999997" height="100" preserveAspectRatio="xMidYMid meet" version="1.0"><defs><clipPath id="bec96d0e07"><path d="M 2.789062 2.789062 L 72.539062 2.789062 L 72.539062 72.539062 L 2.789062 72.539062 Z M 2.789062 2.789062 " clip-rule="nonzero"/></clipPath></defs><path fill="#2c5d63" d="M 47.957031 35.503906 C 47.957031 36.324219 47.878906 37.132812 47.71875 37.933594 C 47.558594 38.734375 47.324219 39.515625 47.007812 40.269531 C 46.695312 41.027344 46.3125 41.742188 45.859375 42.421875 C 45.40625 43.101562 44.886719 43.730469 44.308594 44.308594 C 43.730469 44.886719 43.101562 45.40625 42.421875 45.859375 C 41.742188 46.3125 41.027344 46.695312 40.269531 47.007812 C 39.515625 47.324219 38.734375 47.558594 37.933594 47.71875 C 37.132812 47.878906 36.324219 47.957031 35.503906 47.957031 C 34.6875 47.957031 33.878906 47.878906 33.074219 47.71875 C 32.273438 47.558594 31.496094 47.324219 30.738281 47.007812 C 29.984375 46.695312 29.265625 46.3125 28.585938 45.859375 C 27.90625 45.40625 27.277344 44.886719 26.699219 44.308594 C 26.121094 43.730469 25.605469 43.101562 25.152344 42.421875 C 24.695312 41.742188 24.3125 41.027344 24 40.269531 C 23.6875 39.515625 23.453125 38.734375 23.292969 37.933594 C 23.132812 37.132812 23.054688 36.324219 23.054688 35.503906 C 23.054688 34.6875 23.132812 33.878906 23.292969 33.074219 C 23.453125 32.273438 23.6875 31.496094 24 30.738281 C 24.3125 29.984375 24.695312 29.265625 25.152344 28.585938 C 25.605469 27.90625 26.121094 27.277344 26.699219 26.699219 C 27.277344 26.121094 27.90625 25.605469 28.585938 25.152344 C 29.265625 24.695312 29.984375 24.3125 30.738281 24 C 31.496094 23.6875 32.273438 23.453125 33.074219 23.292969 C 33.878906 23.132812 34.6875 23.054688 35.503906 23.054688 C 36.324219 23.054688 37.132812 23.132812 37.933594 23.292969 C 38.734375 23.453125 39.515625 23.6875 40.269531 24 C 41.027344 24.3125 41.742188 24.695312 42.421875 25.152344 C 43.101562 25.605469 43.730469 26.121094 44.308594 26.699219 C 44.886719 27.277344 45.40625 27.90625 45.859375 28.585938 C 46.3125 29.265625 46.695312 29.984375 47.007812 30.738281 C 47.324219 31.496094 47.558594 32.273438 47.71875 33.074219 C 47.878906 33.878906 47.957031 34.6875 47.957031 35.503906 Z M 47.957031 35.503906 " fill-opacity="1" fill-rule="nonzero"/><g clip-path="url(#bec96d0e07)"><path fill="#2c5d63" d="M 37.664062 2.789062 C 18.402344 2.789062 2.789062 18.402344 2.789062 37.664062 C 2.789062 56.925781 18.402344 72.539062 37.664062 72.539062 C 56.925781 72.539062 72.539062 56.925781 72.539062 37.664062 C 72.539062 18.402344 56.925781 2.789062 37.664062 2.789062 Z M 57.941406 57.941406 C 56.644531 59.238281 54.542969 59.238281 53.246094 57.941406 L 46.453125 51.148438 C 43.359375 53.316406 39.597656 54.59375 35.535156 54.597656 C 25.132812 54.613281 16.582031 46.222656 16.414062 35.820312 C 16.238281 25.027344 25.027344 16.238281 35.820312 16.414062 C 46.222656 16.582031 54.613281 25.132812 54.597656 35.535156 C 54.59375 39.597656 53.316406 43.359375 51.148438 46.453125 L 57.941406 53.246094 C 59.238281 54.542969 59.238281 56.644531 57.941406 57.941406 Z M 57.941406 57.941406 " fill-opacity="1" fill-rule="nonzero"/></g></svg>