<svg xmlns="http://www.w3.org/2000/svg" xmlns:xlink="http://www.w3.org/1999/xlink" width="500" zoomAndPan="magnify" viewBox="0 0 375 374.999991" height="500" preserveAspectRatio="xMidYMid meet" version="1.0"><defs><g/><clipPath id="197d73e890"><path d="M 77 133 L 127.964844 133 L 127.964844 196 L 77 196 Z M 77 133 " clip-rule="nonzero"/></clipPath></defs><g clip-path="url(#197d73e890)"><path fill="#a2c11c" d="M 123.738281 139.890625 C 117.050781 129.976562 104.980469 134.628906 96.523438 138.78125 C 90.429688 141.75 84.527344 145.382812 79.039062 149.390625 C 74.871094 152.449219 83.097656 163.257812 87.386719 160.125 C 92.574219 156.332031 98.117188 152.933594 103.820312 150.035156 C 104.339844 149.765625 104.855469 149.515625 105.375 149.265625 C 105.449219 149.230469 105.644531 149.140625 105.785156 149.066406 C 105.949219 148.996094 106.109375 148.925781 106.269531 148.855469 C 107.378906 148.351562 108.503906 147.886719 109.648438 147.457031 C 111.632812 146.707031 113.691406 146.097656 115.78125 145.757812 C 116.175781 145.6875 116.585938 145.652344 116.980469 145.617188 C 116.960938 145.882812 116.945312 146.152344 116.910156 146.421875 C 116.800781 147.636719 116.585938 148.835938 116.335938 150.035156 C 115.996094 151.679688 115.800781 152.269531 115.210938 154.167969 C 112.5625 162.574219 108.628906 170.589844 104.554688 178.390625 C 104.320312 175.726562 104.089844 173.058594 103.855469 170.375 C 103.410156 165.152344 95.308594 165.132812 95.773438 170.414062 C 96.382812 177.320312 96.972656 184.242188 97.5625 191.148438 C 97.742188 193.222656 99.296875 195.441406 101.621094 195.246094 C 108.46875 194.636719 115.28125 194.027344 122.128906 193.421875 C 127.296875 192.972656 127.316406 184.777344 122.09375 185.226562 C 119.75 185.421875 117.390625 185.65625 115.03125 185.851562 C 119.554688 177.105469 123.722656 168.085938 126.1875 158.53125 C 127.867188 151.914062 127.617188 145.652344 123.738281 139.890625 Z M 123.738281 139.890625 " fill-opacity="1" fill-rule="nonzero"/></g><path fill="#a2c11c" d="M 94.574219 201.972656 C 88.515625 210.058594 82.433594 218.128906 76.375 226.214844 C 70.582031 219.378906 64.804688 212.5625 59.011719 205.730469 C 61.175781 205.621094 63.339844 205.496094 65.503906 205.390625 C 70.402344 205.121094 70.421875 197.390625 65.484375 197.644531 C 59.460938 197.964844 53.433594 198.285156 47.40625 198.609375 C 45.40625 198.714844 43.492188 200.308594 43.601562 202.492188 C 43.921875 208.84375 44.242188 215.195312 44.582031 221.5625 C 44.851562 226.519531 52.484375 226.539062 52.21875 221.546875 C 52.109375 219.238281 51.984375 216.949219 51.859375 214.640625 C 58.707031 222.726562 65.574219 230.8125 72.421875 238.898438 C 74.675781 241.566406 79.96875 242.476562 82.292969 239.382812 C 89.855469 229.308594 97.382812 219.253906 104.945312 209.199219 C 109.417969 203.261719 98.6875 196.480469 94.574219 201.972656 Z M 94.574219 201.972656 " fill-opacity="1" fill-rule="nonzero"/><path fill="#a2c11c" d="M 26.09375 151.144531 C 26.128906 150.910156 26.203125 150.445312 26.257812 150.230469 C 26.34375 149.835938 26.488281 149.480469 26.632812 149.105469 C 26.648438 149.03125 26.667969 148.996094 26.703125 148.941406 C 26.722656 148.90625 26.738281 148.890625 26.757812 148.871094 C 26.953125 148.566406 27.203125 148.300781 27.453125 148.046875 C 27.472656 148.03125 27.507812 148.011719 27.523438 147.996094 C 27.8125 147.832031 28.097656 147.707031 28.402344 147.582031 C 28.542969 147.546875 28.667969 147.511719 28.792969 147.511719 C 29.007812 147.476562 29.242188 147.441406 29.472656 147.421875 C 29.707031 147.441406 30.476562 147.441406 30.742188 147.457031 C 31.371094 147.511719 31.976562 147.636719 32.585938 147.761719 C 32.675781 147.78125 32.800781 147.816406 32.941406 147.851562 C 33.140625 147.90625 33.320312 147.960938 33.515625 148.011719 C 35.160156 148.496094 36.75 149.105469 38.324219 149.765625 C 39.058594 150.070312 39.792969 150.410156 40.523438 150.75 C 40.613281 150.785156 41.402344 151.160156 41.527344 151.234375 C 42.042969 151.5 42.5625 151.75 43.0625 152.019531 C 47.371094 154.273438 51.554688 156.832031 55.652344 159.480469 C 54.558594 159.570312 53.453125 159.679688 52.359375 159.765625 C 49.554688 160.019531 47.195312 161.984375 47.210938 165.027344 C 47.210938 167.710938 49.589844 170.5 52.398438 170.25 C 57.5625 169.785156 62.730469 169.339844 67.898438 168.875 C 70.527344 168.640625 73.316406 166.636719 73.066406 163.632812 C 72.621094 158.390625 72.15625 153.164062 71.707031 147.921875 C 71.457031 145.078125 69.527344 142.699219 66.523438 142.699219 C 63.875 142.699219 61.121094 145.097656 61.371094 147.960938 C 61.515625 149.585938 61.660156 151.199219 61.800781 152.824219 C 61.390625 152.484375 60.980469 152.164062 60.566406 151.914062 C 52.128906 146.347656 43.097656 140.625 33.390625 137.671875 C 28.097656 136.027344 21.660156 134.953125 17.246094 139.101562 C 14.117188 142.035156 14.0625 147.367188 14.582031 151.324219 C 15.3125 156.867188 16.992188 162.183594 19.03125 167.390625 C 22.320312 175.761719 26.238281 183.972656 30.761719 191.738281 C 32.335938 194.457031 35.445312 197.070312 38.789062 196.640625 C 41.917969 196.230469 42.277344 192.742188 40.917969 190.398438 C 37.378906 184.3125 34.230469 177.945312 31.421875 171.46875 C 31.15625 170.859375 30.90625 170.25 30.636719 169.625 C 30.582031 169.519531 30.546875 169.429688 30.511719 169.320312 C 30.457031 169.160156 30.386719 168.980469 30.332031 168.875 C 29.796875 167.53125 29.296875 166.191406 28.832031 164.832031 C 27.972656 162.34375 27.203125 159.839844 26.648438 157.28125 C 26.523438 156.726562 26.398438 156.136719 26.308594 155.582031 C 26.292969 155.527344 26.292969 155.492188 26.292969 155.4375 C 26.292969 155.347656 26.257812 155.222656 26.238281 155.042969 C 26.113281 153.96875 26.042969 152.859375 26.078125 151.769531 C 26.078125 151.589844 26.09375 151.375 26.09375 151.144531 Z M 26.09375 151.144531 " fill-opacity="1" fill-rule="nonzero"/><g fill="#e0e0e0" fill-opacity="1"><g transform="translate(145.915968, 178.981355)"><g><path d="M 20.171875 0.78125 C 29.386719 0.78125 35.347656 -3.734375 35.347656 -11.082031 C 35.347656 -17.28125 31.191406 -21.015625 20.414062 -23.664062 C 12.222656 -25.652344 9.515625 -27.820312 9.515625 -31.3125 C 9.515625 -35.347656 13.128906 -37.878906 19.148438 -37.878906 C 25.351562 -37.878906 29.207031 -34.746094 29.328125 -29.6875 L 34.566406 -29.6875 C 34.503906 -37.878906 28.605469 -42.9375 19.148438 -42.9375 C 9.9375 -42.9375 4.09375 -38.417969 4.09375 -31.3125 C 4.09375 -24.808594 8.730469 -21.195312 19.089844 -18.726562 C 26.675781 -16.921875 29.867188 -14.8125 29.867188 -10.898438 C 29.867188 -6.746094 26.136719 -4.277344 20.171875 -4.277344 C 13.609375 -4.277344 9.03125 -7.527344 8.914062 -12.945312 L 3.613281 -12.945312 C 3.671875 -4.695312 10.117188 0.78125 20.171875 0.78125 Z M 20.171875 0.78125 "/></g></g></g><g fill="#e0e0e0" fill-opacity="1"><g transform="translate(184.876486, 178.981355)"><g><path d="M 6.140625 0 L 11.441406 0 L 11.441406 -13.851562 L 20.414062 -13.851562 C 29.929688 -13.851562 36.070312 -19.332031 36.070312 -28 C 36.070312 -36.613281 29.929688 -42.152344 20.414062 -42.152344 L 6.140625 -42.152344 Z M 11.441406 -18.789062 L 11.441406 -37.09375 L 20.292969 -37.09375 C 27.097656 -37.09375 30.652344 -33.964844 30.652344 -27.941406 C 30.652344 -21.917969 27.097656 -18.789062 20.292969 -18.789062 Z M 11.441406 -18.789062 "/></g></g></g><g fill="#e0e0e0" fill-opacity="1"><g transform="translate(223.355271, 178.981355)"><g><path d="M 1.023438 0 L 6.683594 0 L 10.539062 -9.574219 L 31.074219 -9.574219 L 35.046875 0 L 40.648438 0 L 23.304688 -42.152344 L 18.367188 -42.152344 Z M 12.585938 -14.511719 L 20.835938 -34.746094 L 29.085938 -14.511719 Z M 12.585938 -14.511719 "/></g></g></g><g fill="#e0e0e0" fill-opacity="1"><g transform="translate(265.025559, 178.981355)"><g><path d="M 6.140625 0 L 11.441406 0 L 11.441406 -15.113281 L 20.714844 -15.113281 L 31.011719 0 L 37.394531 0 L 26.796875 -15.65625 C 32.941406 -17.164062 36.734375 -21.800781 36.734375 -28.605469 C 36.734375 -36.972656 30.953125 -42.152344 22.21875 -42.152344 L 6.140625 -42.152344 Z M 11.441406 -20.171875 L 11.441406 -37.09375 L 21.617188 -37.09375 C 27.761719 -37.09375 31.3125 -33.964844 31.3125 -28.605469 C 31.3125 -23.246094 27.761719 -20.171875 21.617188 -20.171875 Z M 11.441406 -20.171875 "/></g></g></g><g fill="#e0e0e0" fill-opacity="1"><g transform="translate(306.033464, 178.981355)"><g><path d="M 6.140625 0 L 32.398438 0 L 32.398438 -4.9375 L 11.441406 -4.9375 L 11.441406 -19.027344 L 30.230469 -19.027344 L 30.230469 -23.90625 L 11.441406 -23.90625 L 11.441406 -37.214844 L 31.734375 -37.214844 L 31.734375 -42.152344 L 6.140625 -42.152344 Z M 6.140625 0 "/></g></g></g><g fill="#a2c11c" class="animate" fill-opacity="1"><g transform="translate(145.961628, 235.98494)"><g><path d="M 24.570312 0.902344 C 39.082031 0.902344 48.175781 -9.636719 46.851562 -24.449219 L 22.460938 -24.449219 L 22.460938 -15.898438 L 34.082031 -15.898438 C 32.878906 -12.34375 29.507812 -9.9375 24.691406 -9.9375 C 17.945312 -9.9375 14.03125 -14.691406 14.03125 -21.078125 C 14.03125 -27.699219 18.304688 -32.21875 24.570312 -32.21875 C 28.304688 -32.21875 31.496094 -30.589844 33.121094 -27.941406 L 46.066406 -27.941406 C 43.597656 -37.15625 35.046875 -43.054688 24.386719 -43.054688 C 11.140625 -43.054688 2.046875 -34.023438 2.046875 -21.078125 C 2.046875 -8.070312 11.199219 0.902344 24.570312 0.902344 Z M 24.570312 0.902344 "/></g></g></g><g fill="#a2c11c" className="animate" fill-opacity="1"><g transform="translate(201.000583, 235.98494)"><g><path d="M 4.457031 0 L 16.621094 0 L 16.621094 -11.984375 L 21.195312 -11.984375 L 27.21875 0 L 41.007812 0 L 33.242188 -14.210938 C 37.695312 -16.679688 40.226562 -21.136719 40.226562 -27.039062 C 40.226562 -36.371094 33.902344 -42.152344 23.664062 -42.152344 L 4.457031 -42.152344 Z M 16.378906 -21.679688 L 16.378906 -32.21875 L 22.039062 -32.21875 C 25.894531 -32.21875 28 -30.351562 28 -26.976562 C 28 -23.605469 25.894531 -21.679688 22.039062 -21.679688 Z M 16.378906 -21.679688 "/></g></g></g><g fill="#a2c11c" className="animate" fill-opacity="1"><g transform="translate(250.499561, 235.98494)"><g><path d="M 22.582031 0.902344 C 33.964844 0.902344 41.007812 -6.023438 41.007812 -17.34375 L 41.007812 -42.152344 L 28.90625 -42.152344 L 28.90625 -18.125 C 28.90625 -13.128906 26.796875 -10.476562 22.582031 -10.476562 C 18.367188 -10.476562 16.257812 -13.128906 16.257812 -18.125 L 16.257812 -42.152344 L 4.09375 -42.152344 L 4.09375 -17.34375 C 4.09375 -6.023438 11.199219 0.902344 22.582031 0.902344 Z M 22.582031 0.902344 "/></g></g></g><g fill="#a2c11c" className="animate" fill-opacity="1"><g transform="translate(301.805047, 235.98494)"><g><path d="M 4.457031 0 L 26.074219 0 C 34.625 0 40.585938 -4.816406 40.585938 -11.742188 C 40.585938 -16.199219 38.179688 -19.8125 34.203125 -21.558594 C 37.457031 -23.425781 39.324219 -26.796875 39.324219 -30.832031 C 39.324219 -37.757812 33.78125 -42.152344 24.992188 -42.152344 L 4.457031 -42.152344 Z M 16.378906 -9.03125 L 16.378906 -16.921875 L 23.726562 -16.921875 C 26.617188 -16.921875 28.242188 -15.476562 28.242188 -13.007812 C 28.242188 -10.476562 26.617188 -9.03125 23.726562 -9.03125 Z M 16.378906 -25.59375 L 16.378906 -33.179688 L 22.703125 -33.179688 C 25.53125 -33.179688 27.097656 -31.796875 27.097656 -29.386719 C 27.097656 -26.917969 25.53125 -25.59375 22.703125 -25.59375 Z M 16.378906 -25.59375 "/></g></g></g></svg>